<svg xmlns="http://www.w3.org/2000/svg">
	<!--    Message-->
	<symbol id="icon-message" viewBox="0 0 24 24">
		<path d="M0 0h24v24H0V0z" fill="none"/>
		<path d="M20 17.17L18.83 16H4V4h16v13.17zM20 2H4c-1.1 0-2 .9-2 2v12c0 1.1.9 2 2 2h14l4 4V4c0-1.1-.9-2-2-2z"/>
	</symbol>

	<!--    Notification-->
	<symbol id="icon-notification" viewBox="0 0 24 24">
		<path d="M0 0h24v24H0V0z" fill="none"/>
		<path d="M12 22c1.1 0 2-.9 2-2h-4c0 1.1.9 2 2 2zm6-6v-5c0-3.07-1.63-5.64-4.5-6.32V4c0-.83-.67-1.5-1.5-1.5s-1.5.67-1.5 1.5v.68C7.64 5.36 6 7.92 6 11v5l-2 2v1h16v-1l-2-2zm-2 1H8v-6c0-2.48 1.51-4.5 4-4.5s4 2.02 4 4.5v6z"/>
	</symbol>

	<symbol id="icon-dropdown" viewBox="0 0 24 24">
		<path d="M0 0h24v24H0z" fill="none"/>
		<path d="M16.59 8.59L12 13.17 7.41 8.59 6 10l6 6 6-6z"/>
	</symbol>

	<!--User-->
	<symbol id="icon-user" viewBox="0 0 24 24">
		<path d="M12,12A6,6,0,1,0,6,6,6.006,6.006,0,0,0,12,12ZM12,2A4,4,0,1,1,8,6,4,4,0,0,1,12,2Z"/>
		<path d="M12,14a9.01,9.01,0,0,0-9,9,1,1,0,0,0,2,0,7,7,0,0,1,14,0,1,1,0,0,0,2,0A9.01,9.01,0,0,0,12,14Z"/>
	</symbol>

	<!--Users-->
	<symbol id="icon-users" viewBox="0 0 24 24">
		<path d="M7.5,13A4.5,4.5,0,1,1,12,8.5,4.505,4.505,0,0,1,7.5,13Zm0-7A2.5,2.5,0,1,0,10,8.5,2.5,2.5,0,0,0,7.5,6ZM15,23v-.5a7.5,7.5,0,0,0-15,0V23a1,1,0,0,0,2,0v-.5a5.5,5.5,0,0,1,11,0V23a1,1,0,0,0,2,0Zm9-5a7,7,0,0,0-11.667-5.217,1,1,0,1,0,1.334,1.49A5,5,0,0,1,22,18a1,1,0,0,0,2,0ZM17.5,9A4.5,4.5,0,1,1,22,4.5,4.505,4.505,0,0,1,17.5,9Zm0-7A2.5,2.5,0,1,0,20,4.5,2.5,2.5,0,0,0,17.5,2Z"/>
	</symbol>

	<!--User add-->
	<symbol id="icon-user-add" viewBox="0 0 24 24">
		<path d="M23,11H21V9a1,1,0,0,0-2,0v2H17a1,1,0,0,0,0,2h2v2a1,1,0,0,0,2,0V13h2a1,1,0,0,0,0-2Z"/>
		<path d="M9,12A6,6,0,1,0,3,6,6.006,6.006,0,0,0,9,12ZM9,2A4,4,0,1,1,5,6,4,4,0,0,1,9,2Z"/>
		<path d="M9,14a9.01,9.01,0,0,0-9,9,1,1,0,0,0,2,0,7,7,0,0,1,14,0,1,1,0,0,0,2,0A9.01,9.01,0,0,0,9,14Z"/>
	</symbol>

	<!--User delete-->
	<symbol id="icon-user-delete" viewBox="0 0 24 24">
		<path d="M17,24a1,1,0,0,1-1-1A7,7,0,0,0,2,23a1,1,0,0,1-2,0,9,9,0,0,1,18,0A1,1,0,0,1,17,24Zm6-11H17a1,1,0,0,1,0-2h6a1,1,0,0,1,0,2ZM9,12a6,6,0,1,1,6-6A6.006,6.006,0,0,1,9,12ZM9,2a4,4,0,1,0,4,4A4,4,0,0,0,9,2Z"/>
	</symbol>

	<!--Document-->
	<symbol id="icon-document" viewBox="0 0 24 24">
		<path d="M17,14a1,1,0,0,1-1,1H8a1,1,0,0,1,0-2h8A1,1,0,0,1,17,14Zm-4,3H8a1,1,0,0,0,0,2h5a1,1,0,0,0,0-2Zm9-6.515V19a5.006,5.006,0,0,1-5,5H7a5.006,5.006,0,0,1-5-5V5A5.006,5.006,0,0,1,7,0h4.515a6.958,6.958,0,0,1,4.95,2.05l3.484,3.486A6.951,6.951,0,0,1,22,10.485ZM15.051,3.464A5.01,5.01,0,0,0,14,2.684V7a1,1,0,0,0,1,1h4.316a4.983,4.983,0,0,0-.781-1.05ZM20,10.485c0-.165-.032-.323-.047-.485H15a3,3,0,0,1-3-3V2.047C11.838,2.032,11.679,2,11.515,2H7A3,3,0,0,0,4,5V19a3,3,0,0,0,3,3H17a3,3,0,0,0,3-3Z"/>
	</symbol>

	<!--Search-->
	<symbol id="icon-search" viewBox="0 0 24 24">
		<path d="M23.707,22.293l-5.969-5.969a10.016,10.016,0,1,0-1.414,1.414l5.969,5.969a1,1,0,0,0,1.414-1.414ZM10,18a8,8,0,1,1,8-8A8.009,8.009,0,0,1,10,18Z"/>
	</symbol>

	<!--Dashboard-->
	<symbol id="icon-apps" viewBox="0 0 24 24">
		<path d="M7,0H4A4,4,0,0,0,0,4V7a4,4,0,0,0,4,4H7a4,4,0,0,0,4-4V4A4,4,0,0,0,7,0ZM9,7A2,2,0,0,1,7,9H4A2,2,0,0,1,2,7V4A2,2,0,0,1,4,2H7A2,2,0,0,1,9,4Z"/>
		<path d="M20,0H17a4,4,0,0,0-4,4V7a4,4,0,0,0,4,4h3a4,4,0,0,0,4-4V4A4,4,0,0,0,20,0Zm2,7a2,2,0,0,1-2,2H17a2,2,0,0,1-2-2V4a2,2,0,0,1,2-2h3a2,2,0,0,1,2,2Z"/>
		<path d="M7,13H4a4,4,0,0,0-4,4v3a4,4,0,0,0,4,4H7a4,4,0,0,0,4-4V17A4,4,0,0,0,7,13Zm2,7a2,2,0,0,1-2,2H4a2,2,0,0,1-2-2V17a2,2,0,0,1,2-2H7a2,2,0,0,1,2,2Z"/>
		<path d="M20,13H17a4,4,0,0,0-4,4v3a4,4,0,0,0,4,4h3a4,4,0,0,0,4-4V17A4,4,0,0,0,20,13Zm2,7a2,2,0,0,1-2,2H17a2,2,0,0,1-2-2V17a2,2,0,0,1,2-2h3a2,2,0,0,1,2,2Z"/>
	</symbol>

	<!--Settings-->
	<symbol id="icon-settings" viewBox="0 0 24 24">
		<path d="M12,8a4,4,0,1,0,4,4A4,4,0,0,0,12,8Zm0,6a2,2,0,1,1,2-2A2,2,0,0,1,12,14Z"/>
		<path d="M21.294,13.9l-.444-.256a9.1,9.1,0,0,0,0-3.29l.444-.256a3,3,0,1,0-3-5.2l-.445.257A8.977,8.977,0,0,0,15,3.513V3A3,3,0,0,0,9,3v.513A8.977,8.977,0,0,0,6.152,5.159L5.705,4.9a3,3,0,0,0-3,5.2l.444.256a9.1,9.1,0,0,0,0,3.29l-.444.256a3,3,0,1,0,3,5.2l.445-.257A8.977,8.977,0,0,0,9,20.487V21a3,3,0,0,0,6,0v-.513a8.977,8.977,0,0,0,2.848-1.646l.447.258a3,3,0,0,0,3-5.2Zm-2.548-3.776a7.048,7.048,0,0,1,0,3.75,1,1,0,0,0,.464,1.133l1.084.626a1,1,0,0,1-1,1.733l-1.086-.628a1,1,0,0,0-1.215.165,6.984,6.984,0,0,1-3.243,1.875,1,1,0,0,0-.751.969V21a1,1,0,0,1-2,0V19.748a1,1,0,0,0-.751-.969A6.984,6.984,0,0,1,7.006,16.9a1,1,0,0,0-1.215-.165l-1.084.627a1,1,0,1,1-1-1.732l1.084-.626a1,1,0,0,0,.464-1.133,7.048,7.048,0,0,1,0-3.75A1,1,0,0,0,4.79,8.992L3.706,8.366a1,1,0,0,1,1-1.733l1.086.628A1,1,0,0,0,7.006,7.1a6.984,6.984,0,0,1,3.243-1.875A1,1,0,0,0,11,4.252V3a1,1,0,0,1,2,0V4.252a1,1,0,0,0,.751.969A6.984,6.984,0,0,1,16.994,7.1a1,1,0,0,0,1.215.165l1.084-.627a1,1,0,1,1,1,1.732l-1.084.626A1,1,0,0,0,18.746,10.125Z"/>
	</symbol>

	<!--Activity-->
	<symbol id="icon-activity" viewBox="0 0 24 24">
		<path d="M12,0A12,12,0,1,0,24,12,12.013,12.013,0,0,0,12,0Zm0,22A10,10,0,1,1,22,12,10.011,10.011,0,0,1,12,22Z"/>
		<path d="M12,6a1,1,0,0,0-1,1v4.325L7.629,13.437a1,1,0,0,0,1.062,1.7l3.84-2.4A1,1,0,0,0,13,11.879V7A1,1,0,0,0,12,6Z"/>
	</symbol>

	<!--List check-->
	<symbol id="icon-list-check" viewBox="0 0 24 24">
		<path d="M4,6a2.982,2.982,0,0,1-2.122-.879L.334,3.747A1,1,0,0,1,1.666,2.253L3.251,3.667a1,1,0,0,0,1.456.04L8.311.276A1,1,0,0,1,9.689,1.724L6.1,5.138A2.964,2.964,0,0,1,4,6ZM24,4a1,1,0,0,0-1-1H13a1,1,0,0,0,0,2H23A1,1,0,0,0,24,4ZM6.1,13.138,9.689,9.724A1,1,0,1,0,8.311,8.276l-3.6,3.431a1.023,1.023,0,0,1-1.414,0L1.707,10.122A1,1,0,0,0,.293,11.536l1.585,1.585a3,3,0,0,0,4.226.017ZM24,12a1,1,0,0,0-1-1H13a1,1,0,0,0,0,2H23A1,1,0,0,0,24,12ZM6.1,21.138l3.585-3.414a1,1,0,1,0-1.378-1.448l-3.6,3.431a1,1,0,0,1-1.456-.04L1.666,18.253A1,1,0,0,0,.334,19.747l1.544,1.374a3,3,0,0,0,4.226.017ZM24,20a1,1,0,0,0-1-1H13a1,1,0,0,0,0,2H23A1,1,0,0,0,24,20Z"/>
	</symbol>

	<!--search-->
	<symbol id="icon-search" viewBox="0 0 24 24">
		<path d="M23.707,22.293l-5.969-5.969a10.016,10.016,0,1,0-1.414,1.414l5.969,5.969a1,1,0,0,0,1.414-1.414ZM10,18a8,8,0,1,1,8-8A8.009,8.009,0,0,1,10,18Z"/>
	</symbol>

	<!--Angle right-->
	<symbol id="icon-angle-right" viewBox="0 0 24 24">
		<path d="M7,24a1,1,0,0,1-.707-1.707l8.172-8.172a3,3,0,0,0,0-4.242L6.293,1.707A1,1,0,0,1,7.707.293l8.172,8.172a5.005,5.005,0,0,1,0,7.07L7.707,23.707A1,1,0,0,1,7,24Z"/>
	</symbol>

	<!--Forward-->
	<symbol id="icon-forward" viewBox="0 0 24 24">
		<path d="M0,23V16A9.01,9.01,0,0,1,9,7h4.83V5.414A2,2,0,0,1,17.244,4l5.88,5.879a3,3,0,0,1,0,4.242L17.244,20a2,2,0,0,1-3.414-1.414V17H8a6.006,6.006,0,0,0-6,6,1,1,0,0,1-2,0ZM15.83,8a1,1,0,0,1-1,1H9a7.008,7.008,0,0,0-7,7v1.714A7.984,7.984,0,0,1,8,15h6.83a1,1,0,0,1,1,1v2.586l5.879-5.879a1,1,0,0,0,0-1.414L15.83,5.414Z"/>
	</symbol>

	<!--Reply-->
	<symbol id="icon-reply" viewBox="0 0 24 24">
		<path d="M23,24a1,1,0,0,1-1-1,6.006,6.006,0,0,0-6-6H10.17v1.586A2,2,0,0,1,6.756,20L.877,14.121a3,3,0,0,1,0-4.242L6.756,4A2,2,0,0,1,10.17,5.414V7H15a9.01,9.01,0,0,1,9,9v7A1,1,0,0,1,23,24ZM8.17,5.414,2.291,11.293a1,1,0,0,0,0,1.414L8.17,18.586V16a1,1,0,0,1,1-1H16a7.984,7.984,0,0,1,6,2.714V16a7.008,7.008,0,0,0-7-7H9.17a1,1,0,0,1-1-1Z"/>
	</symbol>

	<!--Trash / Delete / Remove-->
	<svg id="icon-trash" viewBox="0 0 24 24">
		<path d="M21,4H17.9A5.009,5.009,0,0,0,13,0H11A5.009,5.009,0,0,0,6.1,4H3A1,1,0,0,0,3,6H4V19a5.006,5.006,0,0,0,5,5h6a5.006,5.006,0,0,0,5-5V6h1a1,1,0,0,0,0-2ZM11,2h2a3.006,3.006,0,0,1,2.829,2H8.171A3.006,3.006,0,0,1,11,2Zm7,17a3,3,0,0,1-3,3H9a3,3,0,0,1-3-3V6H18Z"/>
		<path d="M10,18a1,1,0,0,0,1-1V11a1,1,0,0,0-2,0v6A1,1,0,0,0,10,18Z"/>
		<path d="M14,18a1,1,0,0,0,1-1V11a1,1,0,0,0-2,0v6A1,1,0,0,0,14,18Z"/>
	</svg>

	<!--    clip-->
	<symbol id="icon-clip" viewBox="0 0 24 24">
		<path d="M22.95,9.6a1,1,0,0,0-1.414,0L10.644,20.539a5,5,0,1,1-7.072-7.071L14.121,2.876a3,3,0,0,1,4.243,4.242L7.815,17.71a1.022,1.022,0,0,1-1.414,0,1,1,0,0,1,0-1.414l9.392-9.435a1,1,0,0,0-1.414-1.414L4.987,14.882a3,3,0,0,0,0,4.243,3.073,3.073,0,0,0,4.243,0L19.778,8.532a5,5,0,0,0-7.071-7.07L2.158,12.054a7,7,0,0,0,9.9,9.9L22.95,11.018A1,1,0,0,0,22.95,9.6Z"/>
	</symbol>

	<!--plus small-->
	<symbol id="icon-plus-sm" viewBox="0 0 24 24">
		<path d="M17,11H13V7a1,1,0,0,0-1-1h0a1,1,0,0,0-1,1v4H7a1,1,0,0,0-1,1H6a1,1,0,0,0,1,1h4v4a1,1,0,0,0,1,1h0a1,1,0,0,0,1-1V13h4a1,1,0,0,0,1-1h0A1,1,0,0,0,17,11Z"/>
	</symbol>

	<!--Minus small-->
	<symbol id="icon-minus-sm" viewBox="0 0 24 24">
		<rect x="6" y="11" width="12" height="2" rx="1"/>
	</symbol>

	<!--shuffle-->
	<symbol id="icon-shuffle" viewBox="0 0 24 24">
		<path d="M23.421,16.583,20.13,13.292a1,1,0,1,0-1.413,1.414L21.007,17A9.332,9.332,0,0,1,14.321,14.2a.982.982,0,0,0-1.408.08L12.9,14.3a1,1,0,0,0,.075,1.382A11.177,11.177,0,0,0,21.01,19l-2.293,2.293A1,1,0,1,0,20.13,22.7l3.291-3.291A2,2,0,0,0,23.421,16.583Z"/>
		<path d="M21.007,7l-2.29,2.29a.892.892,0,0,0-.054.082.992.992,0,0,0,1.467,1.332L21.836,9l1.586-1.585a2,2,0,0,0,.457-2.1,1.969,1.969,0,0,0-.458-.728L20.13,1.3a1,1,0,1,0-1.413,1.413L21.01,5.005c-4.933.012-7.637,2.674-10.089,5.474C8.669,7.937,6,5.4,1.487,5.046L1.006,5a1,1,0,0,0-1,1,1.02,1.02,0,0,0,1,1c.072,0,.287.033.287.033C5.189,7.328,7.425,9.522,9.6,12c-2.162,2.466-4.383,4.7-8.247,4.96l-.4.021a.994.994,0,1,0,.124,1.985c.156-.007.41-.013.535-.023,5.02-.387,7.743-3.6,10.171-6.409C14.235,9.7,16.551,7.018,21.007,7Z"/>
	</symbol>

	<!--time past-->
	<symbol id="icon-time-past" viewBox="0 0 24 24">
		<path d="M12,6a1,1,0,0,0-1,1v5a1,1,0,0,0,.293.707l3,3a1,1,0,0,0,1.414-1.414L13,11.586V7A1,1,0,0,0,12,6Z"/>
		<path d="M23.812,10.132A12,12,0,0,0,3.578,3.415V1a1,1,0,0,0-2,0V5a2,2,0,0,0,2,2h4a1,1,0,0,0,0-2H4.827a9.99,9.99,0,1,1-2.835,7.878A.982.982,0,0,0,1,12a1.007,1.007,0,0,0-1,1.1,12,12,0,1,0,23.808-2.969Z"/>
	</symbol>

	<!--credit card-->
	<symbol id="icon-credit-card" viewBox="0 0 24 24"
			style="enable-background:new 0 0 24 24;" xml:space="preserve">
        <circle cx="5.5" cy="15.5" r="1.5"/>
		<path d="M19,3H5C2.2,3,0,5.2,0,8v8c0,2.8,2.2,5,5,5h14c2.8,0,5-2.2,5-5V8C24,5.2,21.8,3,19,3z M5,5h14c1.7,0,3,1.3,3,3H2  C2,6.3,3.3,5,5,5z M19,19H5c-1.7,0-3-1.3-3-3v-6h20v6C22,17.7,20.7,19,19,19z"/>
    </symbol>

	<!--dashboard-->
	<symbol id="icon-dashboard" viewBox="0 0 24 24">
		<path d="M23.9,11.437A12,12,0,0,0,0,13a11.878,11.878,0,0,0,3.759,8.712A4.84,4.84,0,0,0,7.113,23H16.88a4.994,4.994,0,0,0,3.509-1.429A11.944,11.944,0,0,0,23.9,11.437Zm-4.909,8.7A3,3,0,0,1,16.88,21H7.113a2.862,2.862,0,0,1-1.981-.741A9.9,9.9,0,0,1,2,13,10.014,10.014,0,0,1,5.338,5.543,9.881,9.881,0,0,1,11.986,3a10.553,10.553,0,0,1,1.174.066,9.994,9.994,0,0,1,5.831,17.076ZM7.807,17.285a1,1,0,0,1-1.4,1.43A8,8,0,0,1,12,5a8.072,8.072,0,0,1,1.143.081,1,1,0,0,1,.847,1.133.989.989,0,0,1-1.133.848,6,6,0,0,0-5.05,10.223Zm12.112-5.428A8.072,8.072,0,0,1,20,13a7.931,7.931,0,0,1-2.408,5.716,1,1,0,0,1-1.4-1.432,5.98,5.98,0,0,0,1.744-5.141,1,1,0,0,1,1.981-.286Zm-5.993.631a2.033,2.033,0,1,1-1.414-1.414l3.781-3.781a1,1,0,1,1,1.414,1.414Z"/>
	</symbol>

	<!--Layers-->
	<symbol id="icon-layers" viewBox="0 0 24 24">
		<path d="M22.485,10.975,12,17.267,1.515,10.975A1,1,0,1,0,.486,12.69l11,6.6a1,1,0,0,0,1.03,0l11-6.6a1,1,0,1,0-1.029-1.715Z"/>
		<path d="M22.485,15.543,12,21.834,1.515,15.543A1,1,0,1,0,.486,17.258l11,6.6a1,1,0,0,0,1.03,0l11-6.6a1,1,0,1,0-1.029-1.715Z"/>
		<path d="M12,14.773a2.976,2.976,0,0,1-1.531-.425L.485,8.357a1,1,0,0,1,0-1.714L10.469.652a2.973,2.973,0,0,1,3.062,0l9.984,5.991a1,1,0,0,1,0,1.714l-9.984,5.991A2.976,2.976,0,0,1,12,14.773ZM2.944,7.5,11.5,12.633a.974.974,0,0,0,1,0L21.056,7.5,12.5,2.367a.974.974,0,0,0-1,0h0Z"/>
	</symbol>

	<!--search button-->
	<symbol id="icon-search-button" viewBox="0 0 24 24">
		<path d="M15.5 14h-.79l-.28-.27C15.41 12.59 16 11.11 16 9.5 16 5.91 13.09 3 9.5 3S3 5.91 3 9.5 5.91 16 9.5 16c1.61 0 3.09-.59 4.23-1.57l.27.28v.79l5 4.99L20.49 19l-4.99-5zm-6 0C7.01 14 5 11.99 5 9.5S7.01 5 9.5 5 14 7.01 14 9.5 11.99 14 9.5 14z"/>
		<path d="M0 0h24v24H0z"
			  fill="none"/>
	</symbol>

	<!--bank-->
	<symbol id="icon-bank" viewBox="0 0 24 24">
		<path d="M24,23a1,1,0,0,1-1,1H1a1,1,0,0,1,0-2H23A1,1,0,0,1,24,23ZM.291,8.552A2.443,2.443,0,0,1,.444,5.986a4.716,4.716,0,0,1,1.668-1.5L9.613.582a5.174,5.174,0,0,1,4.774,0l7.5,3.907h0a4.716,4.716,0,0,1,1.668,1.5,2.443,2.443,0,0,1,.153,2.566A2.713,2.713,0,0,1,21.292,10H21v8h1a1,1,0,0,1,0,2H2a1,1,0,0,1,0-2H3V10H2.708A2.713,2.713,0,0,1,.291,8.552ZM5,18H8V10H5Zm5-8v8h4V10Zm9,0H16v8h3ZM2.063,7.625A.717.717,0,0,0,2.708,8H21.292a.717.717,0,0,0,.645-.375.452.452,0,0,0-.024-.5,2.7,2.7,0,0,0-.949-.864h0l-7.5-3.907a3.176,3.176,0,0,0-2.926,0l-7.5,3.907a2.712,2.712,0,0,0-.949.865A.452.452,0,0,0,2.063,7.625Z"/>
	</symbol>

	<!--Umbrella-->
	<symbol id="icon-umbrella" viewBox="0 0 24 24">
		<path d="M23.717,9.549A12.834,12.834,0,0,0,13,2.043V1a1,1,0,0,0-2,0V2.043A12.843,12.843,0,0,0,.267,9.549a3.945,3.945,0,0,0,.405,3.682A4.015,4.015,0,0,0,4,15h7v6a1,1,0,0,1-2,0,1,1,0,0,0-2,0,3,3,0,0,0,6,0V15h6.983a4.017,4.017,0,0,0,3.329-1.769A3.948,3.948,0,0,0,23.717,9.549ZM21.656,12.11a1.993,1.993,0,0,1-1.673.89H4a1.992,1.992,0,0,1-1.673-.891,1.927,1.927,0,0,1-.2-1.818C3.581,6.646,7.734,4,12,4a10.809,10.809,0,0,1,9.859,6.291A1.923,1.923,0,0,1,21.656,12.11Z"/>
	</symbol>

	<!--arrow up pointer small-->
	<symbol id="icon-arrow-up" viewBox="0 0 24 24">
		<path d="M6.293,10.879a1,1,0,0,0,1.414,0L11,7.587,11.007,18a1,1,0,0,0,2,0L13,7.586l3.293,3.293a1,1,0,1,0,1.414-1.414L14.122,5.879a3,3,0,0,0-4.243,0L6.293,9.465A1,1,0,0,0,6.293,10.879Z"/>
	</symbol>

	<!--arrow down pointer small-->
	<symbol id="icon-arrow-down" viewBox="0 0 24 24">
		<path d="M17.707,13.121a1,1,0,0,0-1.414,0L13,16.413,12.993,6a1,1,0,0,0-2,0L11,16.414,7.707,13.121a1,1,0,1,0-1.414,1.414l3.585,3.586a3,3,0,0,0,4.243,0l3.586-3.586A1,1,0,0,0,17.707,13.121Z"/>
	</symbol>

	<!--down arrow-->
	<symbol id="icon-down-arrow" viewBox="0 0 24 24">
		<path d="M0 0h24v24H0z" fill="none"/>
		<path d="M16.59 8.59L12 13.17 7.41 8.59 6 10l6 6 6-6z"/>
	</symbol>

	<!--up arrow-->
	<symbol id="icon-up-arrow" viewBox="0 0 24 24">
		<path d="M0 0h24v24H0z" fill="none"/>
		<path d="M12 8l-6 6 1.41 1.41L12 10.83l4.59 4.58L18 14z"/>
	</symbol>

	<!--Arrow left-->
	<symbol id="icon-arrow-left" viewBox="0 0 24 24">
		<path d="M.876,14.088l3.879,3.879a1,1,0,0,0,1.414,0h0a1,1,0,0,0,0-1.414L2.614,13,23,13a1,1,0,0,0,1-1h0a1,1,0,0,0-1-1L2.553,11,6.169,7.381a1,1,0,0,0,0-1.414h0a1,1,0,0,0-1.414,0L.875,9.846A3.007,3.007,0,0,0,.876,14.088Z"/>
	</symbol>

	<!--calendar-->
	<symbol id="icon-calendar" viewBox="0 0 24 24">
		<path d="M19,2H18V1a1,1,0,0,0-2,0V2H8V1A1,1,0,0,0,6,1V2H5A5.006,5.006,0,0,0,0,7V19a5.006,5.006,0,0,0,5,5H19a5.006,5.006,0,0,0,5-5V7A5.006,5.006,0,0,0,19,2ZM2,7A3,3,0,0,1,5,4H19a3,3,0,0,1,3,3V8H2ZM19,22H5a3,3,0,0,1-3-3V10H22v9A3,3,0,0,1,19,22Z"/>
		<circle cx="12" cy="15" r="1.5"/>
		<circle cx="7" cy="15" r="1.5"/>
		<circle cx="17" cy="15" r="1.5"/>
	</symbol>

	<!--Notebook-->
	<symbol id="icon-notebook" viewBox="0 0 24 24">
		<path d="M19,3.022c0-.008,0-.014,0-.022V1a1,1,0,0,0-2,0V2.1A5,5,0,0,0,16,2H15V1a1,1,0,0,0-2,0V2H11V1A1,1,0,0,0,9,1V2H8a5,5,0,0,0-1,.1V1A1,1,0,0,0,5,1V3c0,.008,0,.014,0,.022A4.979,4.979,0,0,0,3,7V19a5.006,5.006,0,0,0,5,5h8a5.006,5.006,0,0,0,5-5V7A4.979,4.979,0,0,0,19,3.022ZM19,19a3,3,0,0,1-3,3H8a3,3,0,0,1-3-3V7A3,3,0,0,1,8,4h8a3,3,0,0,1,3,3ZM17,8a1,1,0,0,1-1,1H8A1,1,0,0,1,8,7h8A1,1,0,0,1,17,8Zm0,4a1,1,0,0,1-1,1H8a1,1,0,0,1,0-2h8A1,1,0,0,1,17,12Zm-4,4a1,1,0,0,1-1,1H8a1,1,0,0,1,0-2h4A1,1,0,0,1,13,16Z"/>
	</symbol>

	<!--Filter-->
	<symbol id="icon-filter" viewBox="0 0 24 24">
		<path d="M14,24a1,1,0,0,1-.6-.2l-4-3A1,1,0,0,1,9,20V14.38L1.984,6.487A3.9,3.9,0,0,1,4.9,0H19.1a3.9,3.9,0,0,1,2.913,6.488L15,14.38V23a1,1,0,0,1-1,1Zm-3-4.5L13,21V14a1,1,0,0,1,.253-.664l7.268-8.177A1.9,1.9,0,0,0,19.1,2H4.9A1.9,1.9,0,0,0,3.479,5.158l7.269,8.178A1,1,0,0,1,11,14Z"/>
	</symbol>

	<!--Money-->
	<symbol id="icon-money" viewBox="0 0 24 24">
		<path d="M19,20H5a5.006,5.006,0,0,1-5-5V9A5.006,5.006,0,0,1,5,4H19a5.006,5.006,0,0,1,5,5v6A5.006,5.006,0,0,1,19,20ZM5,6A3,3,0,0,0,2,9v6a3,3,0,0,0,3,3H19a3,3,0,0,0,3-3V9a3,3,0,0,0-3-3Zm7,10a4,4,0,1,1,4-4A4,4,0,0,1,12,16Zm0-6a2,2,0,1,0,2,2A2,2,0,0,0,12,10ZM5,8A1,1,0,1,0,6,9,1,1,0,0,0,5,8ZM18,9a1,1,0,1,0,1-1A1,1,0,0,0,18,9ZM5,14a1,1,0,1,0,1,1A1,1,0,0,0,5,14Zm13,1a1,1,0,1,0,1-1A1,1,0,0,0,18,15Z"/>
	</symbol>

	<!--subtitles-->
	<svg id="icon-subtitles" viewBox="0 0 24 24">
		<path d="M19,22H5a5.006,5.006,0,0,1-5-5V7A5.006,5.006,0,0,1,5,2H19a5.006,5.006,0,0,1,5,5V17A5.006,5.006,0,0,1,19,22ZM5,4A3,3,0,0,0,2,7V17a3,3,0,0,0,3,3H19a3,3,0,0,0,3-3V7a3,3,0,0,0-3-3Z"/>
		<path d="M19,13H11a1,1,0,0,1,0-2h8a1,1,0,0,1,0,2Z"/>
		<path d="M7,13H5a1,1,0,0,1,0-2H7a1,1,0,0,1,0,2Z"/>
		<path d="M13,18H5a1,1,0,0,1,0-2h8a1,1,0,0,1,0,2Z"/>
		<path d="M19,18H17a1,1,0,0,1,0-2h2a1,1,0,0,1,0,2Z"/>
	</svg>

	<!--Home-->
	<symbol id="icon-home" viewBox="0 0 24 24">
		<path d="M23.121,9.069,15.536,1.483a5.008,5.008,0,0,0-7.072,0L.879,9.069A2.978,2.978,0,0,0,0,11.19v9.817a3,3,0,0,0,3,3H21a3,3,0,0,0,3-3V11.19A2.978,2.978,0,0,0,23.121,9.069ZM15,22.007H9V18.073a3,3,0,0,1,6,0Zm7-1a1,1,0,0,1-1,1H17V18.073a5,5,0,0,0-10,0v3.934H3a1,1,0,0,1-1-1V11.19a1.008,1.008,0,0,1,.293-.707L9.878,2.9a3.008,3.008,0,0,1,4.244,0l7.585,7.586A1.008,1.008,0,0,1,22,11.19Z"/>
	</symbol>

	<!--Check-->
	<symbol id="icon-check" viewBox="0 0 24 24">
		<path d="M22.319,4.431,8.5,18.249a1,1,0,0,1-1.417,0L1.739,12.9a1,1,0,0,0-1.417,0h0a1,1,0,0,0,0,1.417l5.346,5.345a3.008,3.008,0,0,0,4.25,0L23.736,5.847a1,1,0,0,0,0-1.416h0A1,1,0,0,0,22.319,4.431Z"/>
	</symbol>

	<!--check with circle-->
	<symbol id="icon-check-circle" viewBox="0 -21 512.016 512">
		<path d="m234.667969 469.339844c-129.386719 0-234.667969-105.277344-234.667969-234.664063s105.28125-234.6679685 234.667969-234.6679685c44.992187 0 88.765625 12.8203125 126.589843 37.0976565 7.425782 4.78125 9.601563 14.679687 4.820313 22.125-4.796875 7.445312-14.675781 9.597656-22.121094 4.820312-32.640625-20.972656-70.441406-32.042969-109.289062-32.042969-111.746094 0-202.667969 90.921876-202.667969 202.667969 0 111.742188 90.921875 202.664063 202.667969 202.664063 111.742187 0 202.664062-90.921875 202.664062-202.664063 0-6.679687-.320312-13.292969-.9375-19.796875-.851562-8.8125 5.589844-16.621094 14.378907-17.472656 8.832031-.8125 16.617187 5.589844 17.472656 14.378906.722656 7.53125 1.085937 15.167969 1.085937 22.890625 0 129.386719-105.277343 234.664063-234.664062 234.664063zm0 0"/>
		<path d="m261.332031 288.007812c-4.09375 0-8.191406-1.558593-11.304687-4.691406l-96-96c-6.25-6.253906-6.25-16.386718 0-22.636718s16.382812-6.25 22.632812 0l84.695313 84.695312 223.335937-223.339844c6.253906-6.25 16.386719-6.25 22.636719 0s6.25 16.382813 0 22.632813l-234.667969 234.667969c-3.136718 3.113281-7.230468 4.671874-11.328125 4.671874zm0 0"/>
	</symbol>

	<!--Alert-->
	<symbol id="icon-alert" viewBox="0 0 512.001 512.001"
			style="enable-background:new 0 0 512.001 512.001;" xml:space="preserve">
        <g>
            <g>
                <path d="M503.839,395.379l-195.7-338.962C297.257,37.569,277.766,26.315,256,26.315c-21.765,0-41.257,11.254-52.139,30.102    L8.162,395.378c-10.883,18.85-10.883,41.356,0,60.205c10.883,18.849,30.373,30.102,52.139,30.102h391.398    c21.765,0,41.256-11.254,52.14-30.101C514.722,436.734,514.722,414.228,503.839,395.379z M477.861,440.586    c-5.461,9.458-15.241,15.104-26.162,15.104H60.301c-10.922,0-20.702-5.646-26.162-15.104c-5.46-9.458-5.46-20.75,0-30.208    L229.84,71.416c5.46-9.458,15.24-15.104,26.161-15.104c10.92,0,20.701,5.646,26.161,15.104l195.7,338.962    C483.321,419.836,483.321,431.128,477.861,440.586z"/>
            </g>
        </g>
		<g>
            <g>
                <rect x="241.001" y="176.01" width="29.996" height="149.982"/>
            </g>
        </g>
		<g>
            <g>
                <path d="M256,355.99c-11.027,0-19.998,8.971-19.998,19.998s8.971,19.998,19.998,19.998c11.026,0,19.998-8.971,19.998-19.998    S267.027,355.99,256,355.99z"/>
            </g>
        </g>
		<g>
        </g>
		<g>
        </g>
		<g>
        </g>
		<g>
        </g>
		<g>
        </g>
		<g>
        </g>
		<g>
        </g>
		<g>
        </g>
		<g>
        </g>
		<g>
        </g>
		<g>
        </g>
		<g>
        </g>
		<g>
        </g>
		<g>
        </g>
		<g>
        </g>
    </symbol>

	<!--Menu burger-->
	<symbol id="icon-menu" viewBox="0 0 24 24">
		<rect y="11" width="24" height="2" rx="1"/>
		<rect y="4" width="24" height="2" rx="1"/>
		<rect y="18" width="24" height="2" rx="1"/>
	</symbol>

	<!--Cross / Close-->
	<symbol id="icon-cross" viewBox="0 0 24 24">
		<path d="M23.707.293h0a1,1,0,0,0-1.414,0L12,10.586,1.707.293a1,1,0,0,0-1.414,0h0a1,1,0,0,0,0,1.414L10.586,12,.293,22.293a1,1,0,0,0,0,1.414h0a1,1,0,0,0,1.414,0L12,13.414,22.293,23.707a1,1,0,0,0,1.414,0h0a1,1,0,0,0,0-1.414L13.414,12,23.707,1.707A1,1,0,0,0,23.707.293Z"/>
	</symbol>

	<!--sign out/ log out-->
	<svg id="icon-sign-out" viewBox="0 0 24 24">
		<path d="M7,22H5a3,3,0,0,1-3-3V5A3,3,0,0,1,5,2H7A1,1,0,0,0,7,0H5A5.006,5.006,0,0,0,0,5V19a5.006,5.006,0,0,0,5,5H7a1,1,0,0,0,0-2Z"/>
		<path d="M18.538,18.707l4.587-4.586a3.007,3.007,0,0,0,0-4.242L18.538,5.293a1,1,0,0,0-1.414,1.414L21.416,11H6a1,1,0,0,0,0,2H21.417l-4.293,4.293a1,1,0,1,0,1.414,1.414Z"/>
	</svg>

	<!--Cart-->
	<symbol id="icon-cart" viewBox="0 0 24 24">
		<path d="M22.713,4.077A2.993,2.993,0,0,0,20.41,3H4.242L4.2,2.649A3,3,0,0,0,1.222,0H1A1,1,0,0,0,1,2h.222a1,1,0,0,1,.993.883l1.376,11.7A5,5,0,0,0,8.557,19H19a1,1,0,0,0,0-2H8.557a3,3,0,0,1-2.82-2h11.92a5,5,0,0,0,4.921-4.113l.785-4.354A2.994,2.994,0,0,0,22.713,4.077ZM21.4,6.178l-.786,4.354A3,3,0,0,1,17.657,13H5.419L4.478,5H20.41A1,1,0,0,1,21.4,6.178Z"/>
		<circle cx="7" cy="22" r="2"/>
		<circle cx="17" cy="22" r="2"/>
	</symbol>

	<!--headphones-->
	<symbol id="icon-headphones" viewBox="0 0 24 24">
		<path d="M21,12.424V11A9,9,0,0,0,3,11v1.424A5,5,0,0,0,5,22a2,2,0,0,0,2-2V14a2,2,0,0,0-2-2V11a7,7,0,0,1,14,0v1a2,2,0,0,0-2,2v6a2,2,0,0,0,2,2,5,5,0,0,0,2-9.576ZM5,20H5a3,3,0,0,1,0-6Zm14,0V14a3,3,0,0,1,0,6Z"/>
	</symbol>

	<!--Badge-->
	<symbol id="icon-badge" viewBox="0 0 24 24">
		<path d="M20,8A8,8,0,1,0,6,13.274V21.5a2.5,2.5,0,0,0,4.062,1.952l1.626-1.3a.5.5,0,0,1,.624,0l1.626,1.3A2.5,2.5,0,0,0,18,21.5V13.274A7.957,7.957,0,0,0,20,8ZM12,2A6,6,0,1,1,6,8,6.006,6.006,0,0,1,12,2Zm3.717,19.948a.491.491,0,0,1-.529-.06l-1.626-1.3a2.49,2.49,0,0,0-3.124,0l-1.625,1.3A.5.5,0,0,1,8,21.5V14.918a7.935,7.935,0,0,0,8,0V21.5A.487.487,0,0,1,15.717,21.948Z"/>
	</symbol>

	<!--Coins-->
	<symbol id="icon-coins" viewBox="0 0 60 60"
			style="enable-background:new 0 0 60 60;" xml:space="preserve">
        <path d="M59.989,21c-0.099-1.711-2.134-3.048-6.204-4.068c0.137-0.3,0.214-0.612,0.215-0.936V9h-0.017C53.625,3.172,29.743,3,27,3  S0.375,3.172,0.017,9H0v0.13v0v0l0,6.869c0.005,1.9,2.457,3.387,6.105,4.494c-0.05,0.166-0.08,0.335-0.09,0.507H6v0.13v0v0l0,6.857  C2.07,28.999,0.107,30.317,0.01,32H0v0.13v0v0l0,6.869c0.003,1.323,1.196,2.445,3.148,3.38c-0.074,0.203-0.12,0.41-0.133,0.622H3  v0.13v0v0l0,6.869c0.008,3.326,7.497,5.391,15.818,6.355c0.061,0.012,0.117,0.037,0.182,0.037c0.019,0,0.035-0.01,0.054-0.011  c1.604,0.181,3.234,0.322,4.847,0.423c0.034,0.004,0.064,0.02,0.099,0.02c0.019,0,0.034-0.01,0.052-0.011  C26.1,56.937,28.115,57,30,57c1.885,0,3.9-0.063,5.948-0.188c0.018,0.001,0.034,0.011,0.052,0.011c0.035,0,0.065-0.017,0.099-0.02  c1.613-0.101,3.243-0.241,4.847-0.423C40.965,56.38,40.981,56.39,41,56.39c0.065,0,0.121-0.025,0.182-0.037  c8.321-0.964,15.809-3.03,15.818-6.357V43h-0.016c-0.07-1.226-1.115-2.249-3.179-3.104c0.126-0.289,0.195-0.589,0.195-0.9V32.46  c3.59-1.104,5.995-2.581,6-4.464V21H59.989z M51.892,39.321l-0.341,0.299C51.026,40.083,50.151,40.55,49,41v-4.768  c1.189-0.414,2.201-0.873,3-1.376v4.138C52,39.097,51.962,39.207,51.892,39.321z M29.526,43.968  c-0.146,0.004-0.293,0.006-0.44,0.009c-0.357,0.007-0.723,0.009-1.085,0.012v-4.995c0.275-0.003,0.55-0.007,0.825-0.012  c0.053-0.001,0.106-0.002,0.159-0.003c1.007-0.019,2.014-0.05,3.016-0.096v4.993c-0.214,0.011-0.429,0.021-0.646,0.03  C30.753,43.933,30.145,43.953,29.526,43.968z M25.159,43.982c-0.458-0.008-0.914-0.019-1.367-0.033  c-0.056-0.002-0.112-0.004-0.168-0.006c-0.545-0.018-1.086-0.041-1.623-0.067v-4.992c1.002,0.047,2.009,0.078,3.016,0.096  c0.053,0.001,0.106,0.002,0.158,0.003c0.275,0.005,0.55,0.009,0.825,0.012v4.998c-0.194-0.002-0.388-0.002-0.581-0.005  C25.331,43.986,25.246,43.983,25.159,43.982z M7.097,41.702C7.064,41.692,7.033,41.683,7,41.674v-4.831  c0.934,0.252,1.938,0.482,3,0.691v4.881c-0.918-0.195-1.765-0.4-2.536-0.61C7.342,41.77,7.216,41.737,7.097,41.702z M28.175,49.983  c0.275,0.005,0.55,0.009,0.825,0.012v4.999c-1.382-0.013-2.716-0.053-4-0.116v-4.993c1.002,0.047,2.009,0.078,3.016,0.096  C28.069,49.981,28.122,49.982,28.175,49.983z M31.984,49.98c1.007-0.019,2.014-0.05,3.016-0.096v4.993  c-1.284,0.063-2.618,0.103-4,0.116v-4.999c0.275-0.003,0.55-0.007,0.825-0.012C31.878,49.982,31.931,49.981,31.984,49.98z   M40,49.528v4.966c-0.961,0.101-1.961,0.19-3,0.263v-4.987C38.014,49.704,39.016,49.623,40,49.528z M42,49.312  c1.031-0.124,2.032-0.265,3-0.422v4.91c-0.942,0.166-1.943,0.319-3,0.458V49.312z M47,48.533c1.062-0.209,2.066-0.439,3-0.691v4.831  c-0.891,0.257-1.894,0.506-3,0.741V48.533z M13,48.533v4.881c-1.106-0.235-2.109-0.484-3-0.741v-4.831  C10.934,48.094,11.938,48.325,13,48.533z M15,48.891c0.968,0.157,1.969,0.298,3,0.422v4.946c-1.057-0.139-2.058-0.292-3-0.458  V48.891z M20,49.528c0.984,0.095,1.986,0.176,3,0.243v4.987c-1.039-0.073-2.039-0.162-3-0.263V49.528z M17.519,43.548  c-0.102-0.01-0.203-0.021-0.304-0.031c-0.072-0.007-0.143-0.016-0.215-0.023v-4.965c0.984,0.095,1.986,0.176,3,0.243v4.983  C19.16,43.695,18.33,43.627,17.519,43.548z M15,38.312v4.946c-1.057-0.139-2.058-0.292-3-0.458v-4.91  C12.968,38.047,13.969,38.189,15,38.312z M34.666,43.708c-0.22,0.017-0.442,0.034-0.666,0.05v-4.987  c1.014-0.067,2.016-0.147,3-0.243v4.966c-0.618,0.065-1.25,0.126-1.899,0.179C34.956,43.686,34.811,43.697,34.666,43.708z   M39,43.258v-4.946c1.031-0.124,2.032-0.265,3-0.422v4.91C41.058,42.966,40.057,43.12,39,43.258z M44,37.533  c1.062-0.209,2.066-0.439,3-0.691v4.831c-0.891,0.257-1.894,0.506-3,0.741V37.533z M30.325,32.965  c-0.752-0.019-1.487-0.048-2.209-0.083c-0.039-0.002-0.078-0.004-0.116-0.005v-4.993c1.002,0.047,2.009,0.078,3.016,0.096  c0.053,0.001,0.106,0.002,0.158,0.003c0.275,0.005,0.55,0.009,0.825,0.012v4.993c-0.487-0.005-0.978-0.007-1.453-0.018  C30.473,32.968,30.398,32.967,30.325,32.965z M7,18.674v-4.831c0.934,0.252,1.938,0.482,3,0.691v4.881  c-0.123-0.026-0.25-0.052-0.37-0.078c-0.532-0.117-1.051-0.239-1.547-0.368C7.705,18.872,7.346,18.773,7,18.674z M25.175,15.983  c0.275,0.005,0.55,0.009,0.825,0.012v4.993c-1.346-0.013-2.684-0.048-4-0.114v-4.989c1.002,0.047,2.009,0.078,3.016,0.096  C25.069,15.981,25.122,15.982,25.175,15.983z M28.984,15.98c1.007-0.019,2.014-0.05,3.016-0.096v4.989  c-0.17,0.008-0.333,0.02-0.504,0.028c-0.014,0.001-0.028,0.001-0.043,0.002c-0.671,0.03-1.355,0.052-2.048,0.068  c-0.108,0.003-0.216,0.004-0.324,0.007c-0.356,0.007-0.72,0.008-1.081,0.012v-4.995c0.275-0.003,0.55-0.007,0.825-0.012  C28.878,15.982,28.931,15.981,28.984,15.98z M51.771,16.482l-0.028-0.006l-0.364,0.283C50.851,17.17,50.04,17.586,49,17.988v-4.757  c1.189-0.414,2.201-0.873,3-1.376v4.138C52,16.145,51.92,16.309,51.771,16.482z M39,20.252v-4.94c1.031-0.124,2.032-0.265,3-0.422  v4.902C41.052,19.96,40.054,20.114,39,20.252z M44,19.407v-4.873c1.062-0.209,2.066-0.439,3-0.691v4.82  C46.104,18.924,45.095,19.173,44,19.407z M37,15.528v4.96c-0.966,0.102-1.966,0.191-3,0.265v-4.982  C35.014,15.704,36.016,15.623,37,15.528z M17,20.49v-4.962c0.984,0.095,1.986,0.176,3,0.243v4.978  C18.982,20.676,17.978,20.593,17,20.49z M15,15.312v4.941c-0.198-0.026-0.404-0.047-0.6-0.074c-0.128-0.018-0.25-0.037-0.376-0.055  c-0.578-0.083-1.143-0.172-1.697-0.265C12.216,19.84,12.109,19.82,12,19.801v-4.91C12.968,15.047,13.969,15.189,15,15.312z   M25.752,32.739c-0.135-0.01-0.271-0.02-0.405-0.03c-0.64-0.05-1.265-0.105-1.875-0.166c-0.131-0.013-0.262-0.027-0.392-0.04  C23.053,32.5,23.027,32.496,23,32.494v-4.966c0.984,0.095,1.986,0.176,3,0.243v4.984C25.919,32.749,25.833,32.745,25.752,32.739z   M19.145,31.992c-0.396-0.063-0.768-0.131-1.145-0.197v-4.904c0.968,0.157,1.969,0.298,3,0.422v4.946  c-0.612-0.081-1.211-0.165-1.786-0.255C19.191,31.999,19.168,31.995,19.145,31.992z M16,26.533v4.873  c-1.105-0.237-2.107-0.489-3-0.751v-4.813C13.934,26.094,14.938,26.325,16,26.533z M11,25.231v4.751  c-1.572-0.607-2.586-1.227-2.916-1.779l-0.067-0.112C8.011,28.06,8.001,28.027,8,27.996l0-4.141  C8.799,24.358,9.811,24.817,11,25.231z M34.984,27.98c1.007-0.019,2.014-0.05,3.016-0.096v4.988c-1.314,0.065-2.65,0.101-4,0.115  v-4.992c0.275-0.003,0.55-0.007,0.825-0.012C34.878,27.982,34.931,27.981,34.984,27.98z M47.907,31.817  c-0.439,0.076-0.882,0.151-1.337,0.22c-0.261,0.04-0.528,0.078-0.796,0.116c-0.253,0.036-0.516,0.067-0.773,0.1v-4.941  c1.031-0.124,2.032-0.265,3-0.422v4.91C47.969,31.806,47.938,31.812,47.907,31.817z M41.136,32.671  c-0.373,0.031-0.758,0.051-1.136,0.078v-4.978c1.014-0.067,2.016-0.147,3-0.243v4.961c-0.581,0.061-1.161,0.122-1.758,0.172  C41.206,32.664,41.172,32.668,41.136,32.671z M52.564,30.796c-0.498,0.139-1.025,0.269-1.563,0.396  c-0.249,0.058-0.503,0.116-0.763,0.172c-0.077,0.017-0.159,0.032-0.237,0.049v-4.879c1.062-0.209,2.066-0.439,3-0.691v4.831  C52.857,30.714,52.712,30.755,52.564,30.796z M57.989,21.065c-0.092,0.679-1.631,1.582-4.378,2.431l0,0  c-3.538,1.093-9.074,2.094-16.09,2.404c-0.359,0.015-0.717,0.03-1.083,0.042c-0.299,0.01-0.599,0.019-0.904,0.027  C34.706,25.987,33.866,26,33,26s-1.706-0.013-2.534-0.032c-0.304-0.007-0.604-0.017-0.904-0.027  c-0.367-0.011-0.725-0.027-1.083-0.042c-7.016-0.31-12.553-1.311-16.09-2.404l0,0c-2.725-0.842-4.261-1.738-4.375-2.414  c0.005-0.019,0.005-0.035,0.017-0.059c0.068,0.017,0.144,0.031,0.213,0.048c0.391,0.093,0.792,0.183,1.2,0.269  c1.987,0.428,4.189,0.779,6.535,1.047c0.008,0,0.014,0.004,0.021,0.004c0.002,0,0.004-0.001,0.005-0.001  c1.598,0.182,3.256,0.325,4.958,0.426c0.013,0,0.024,0.007,0.037,0.007c0.007,0,0.012-0.004,0.019-0.004  c1.225,0.072,2.466,0.125,3.722,0.153C25.51,22.99,26.265,23,27,23c0.525,0,1.063-0.006,1.606-0.016  c7.266-0.112,14-0.976,18.686-2.315c0.216-0.061,0.427-0.124,0.635-0.187c0.127-0.039,0.257-0.077,0.38-0.116  c0.362-0.116,0.709-0.235,1.044-0.359c0.058-0.022,0.113-0.044,0.171-0.066c0.283-0.107,0.555-0.218,0.815-0.331  c0.075-0.033,0.152-0.065,0.225-0.098c0.277-0.125,0.545-0.253,0.793-0.386c0.112-0.059,0.209-0.12,0.314-0.18  c0.12-0.069,0.24-0.139,0.351-0.21c0.063-0.04,0.138-0.078,0.198-0.118C56.695,19.589,57.875,20.651,57.989,21.065z M27,5  c16.489,0,24.829,2.596,24.985,4.086c-0.121,0.676-1.656,1.569-4.374,2.409l0,0c-3.538,1.093-9.074,2.094-16.09,2.404  c-0.359,0.015-0.717,0.03-1.083,0.042c-0.299,0.01-0.599,0.019-0.904,0.027C28.706,13.987,27.866,14,27,14s-1.706-0.013-2.534-0.032  c-0.304-0.007-0.604-0.017-0.904-0.027c-0.367-0.011-0.725-0.027-1.083-0.042c-7.016-0.31-12.553-1.311-16.09-2.404l0,0  c-2.719-0.84-4.253-1.733-4.374-2.409C2.171,7.596,10.511,5,27,5z M2,15.996l0-4.141c0.799,0.503,1.811,0.962,3,1.376v4.788  C3.055,17.29,2.002,16.559,2,15.996z M6.844,29.835c0.015,0.016,0.038,0.03,0.053,0.046c1.369,1.382,4.204,2.468,7.733,3.278  c0.081,0.019,0.167,0.037,0.249,0.056c0.259,0.058,0.522,0.115,0.788,0.17c3.241,0.69,7.11,1.189,11.325,1.436  c0.003,0,0.005,0.001,0.007,0.001c0.002,0,0.003-0.001,0.004-0.001c1.354,0.079,2.739,0.134,4.153,0.158  C31.782,34.992,32.398,35,33,35c0.69,0,1.398-0.008,2.118-0.025c1.308-0.027,2.597-0.081,3.868-0.155  c0.005,0,0.009,0.003,0.014,0.003c0.009,0,0.016-0.005,0.025-0.005c4.226-0.249,8.191-0.753,11.544-1.478  c-0.726,0.38-1.72,0.773-2.958,1.156l0,0c-3.735,1.154-9.7,2.205-17.281,2.449c-0.225,0.007-0.447,0.015-0.675,0.021  c-0.245,0.006-0.494,0.01-0.743,0.015C28.283,36.991,27.65,37,27,37c-0.866,0-1.706-0.013-2.534-0.032  c-0.304-0.007-0.604-0.017-0.904-0.027c-0.367-0.011-0.725-0.027-1.083-0.042c-7.016-0.31-12.553-1.311-16.09-2.404l0,0  c-2.75-0.85-4.289-1.754-4.378-2.433C2.122,31.686,3.133,30.745,6.844,29.835z M2,38.996l0-4.141c0.799,0.503,1.811,0.962,3,1.376  v4.769l-0.571-0.222L4.417,40.79C2.847,40.139,2.002,39.5,2,38.996z M5,49.996l0-4.141c0.799,0.503,1.811,0.962,3,1.376v4.788  C6.055,51.29,5.002,50.559,5,49.996z M52,52.019v-4.787c1.189-0.414,2.201-0.873,3-1.376v4.138  C54.999,50.557,53.945,51.289,52,52.019z M54.987,43.077c-0.109,0.677-1.645,1.575-4.376,2.419l0,0  c-3.538,1.093-9.074,2.094-16.09,2.404c-0.359,0.015-0.717,0.03-1.083,0.042c-0.299,0.01-0.599,0.019-0.904,0.027  C31.706,47.987,30.866,48,30,48c-0.866,0-1.707-0.013-2.536-0.032c-0.301-0.007-0.598-0.017-0.895-0.027  c-0.369-0.012-0.729-0.027-1.09-0.042c-7.016-0.31-12.552-1.311-16.09-2.404l0,0c-2.645-0.817-4.173-1.685-4.365-2.355  c0.298,0.104,0.607,0.205,0.924,0.304c0.032,0.01,0.064,0.02,0.096,0.029c0.27,0.083,0.546,0.163,0.829,0.241  c0.107,0.03,0.215,0.06,0.324,0.089c0.16,0.043,0.324,0.084,0.488,0.126c3.642,0.933,8.291,1.594,13.31,1.891  c0.002,0,0.003,0.001,0.005,0.001c0.001,0,0.002-0.001,0.003-0.001c1.55,0.092,3.133,0.149,4.733,0.168  C26.162,45.996,26.585,46,27,46c0.551,0,1.115-0.007,1.686-0.017c1.459-0.024,2.899-0.078,4.307-0.162  c0.003,0,0.005,0.002,0.008,0.002c0.005,0,0.008-0.003,0.013-0.003c1.715-0.103,3.375-0.25,4.97-0.433  c0.006,0,0.011,0.003,0.017,0.003c0.022,0,0.04-0.011,0.062-0.013c1.776-0.205,3.46-0.457,5.023-0.75  c0.322-0.059,0.639-0.12,0.953-0.183c0.07-0.014,0.14-0.028,0.21-0.043c2.953-0.606,5.509-1.391,7.263-2.364  c0.096-0.052,0.186-0.106,0.277-0.159c0.111-0.066,0.217-0.133,0.32-0.201c0.096-0.062,0.207-0.122,0.295-0.185  C54.378,42.196,54.922,42.826,54.987,43.077z M55,30.019v-4.787c1.189-0.414,2.201-0.873,3-1.376v4.138  C57.999,28.557,56.945,29.289,55,30.019z"/>
		<g>
        </g>
		<g>
        </g>
		<g>
        </g>
		<g>
        </g>
		<g>
        </g>
		<g>
        </g>
		<g>
        </g>
		<g>
        </g>
		<g>
        </g>
		<g>
        </g>
		<g>
        </g>
		<g>
        </g>
		<g>
        </g>
		<g>
        </g>
		<g>
        </g>
    </symbol>

	<!--Eye-->
	<symbol id="icon-eye" viewBox="0 0 24 24">
		<path d="M23.271,9.419C21.72,6.893,18.192,2.655,12,2.655S2.28,6.893.729,9.419a4.908,4.908,0,0,0,0,5.162C2.28,17.107,5.808,21.345,12,21.345s9.72-4.238,11.271-6.764A4.908,4.908,0,0,0,23.271,9.419Zm-1.705,4.115C20.234,15.7,17.219,19.345,12,19.345S3.766,15.7,2.434,13.534a2.918,2.918,0,0,1,0-3.068C3.766,8.3,6.781,4.655,12,4.655s8.234,3.641,9.566,5.811A2.918,2.918,0,0,1,21.566,13.534Z"/>
		<path d="M12,7a5,5,0,1,0,5,5A5.006,5.006,0,0,0,12,7Zm0,8a3,3,0,1,1,3-3A3,3,0,0,1,12,15Z"/>
	</symbol>

	<!--Facebook-->
	<symbol id="icon-facebook" viewBox="0 0 24 24">
		<path fill="#FFF"
			  d="M18.896 0H1.104C.494 0 0 .494 0 1.104v17.793C0 19.506.494 20 1.104 20h9.58v-7.745H8.076V9.237h2.606V7.01c0-2.583 1.578-3.99 3.883-3.99 1.104 0 2.052.082 2.329.119v2.7h-1.598c-1.254 0-1.496.597-1.496 1.47v1.928h2.989l-.39 3.018h-2.6V20h5.098c.608 0 1.102-.494 1.102-1.104V1.104C20 .494 19.506 0 18.896 0z"/>
	</symbol>

	<!--Twitter-->
	<symbol id="icon-twitter" viewBox="0 0 24 24">
		<path fill="#FFF"
			  d="M20.667 2.797a8.192 8.192 0 01-2.357.646 4.11 4.11 0 001.804-2.27 8.22 8.22 0 01-2.606.996A4.096 4.096 0 0014.513.873c-2.649 0-4.595 2.472-3.997 5.038a11.648 11.648 0 01-8.457-4.287 4.109 4.109 0 001.27 5.478A4.086 4.086 0 011.47 6.59c-.045 1.901 1.317 3.68 3.29 4.075a4.113 4.113 0 01-1.853.07 4.106 4.106 0 003.834 2.85 8.25 8.25 0 01-6.075 1.7 11.616 11.616 0 006.29 1.843c7.618 0 11.922-6.434 11.662-12.205a8.354 8.354 0 002.048-2.124z"/>
	</symbol>

	<!--Instagram-->
	<symbol id="icon-instagram" viewBox="0 0 24 24">
		<path fill="#FFF"
			  d="M10.333 1.802c2.67 0 2.987.01 4.042.059 2.71.123 3.976 1.409 4.1 4.099.048 1.054.057 1.37.057 4.04 0 2.672-.01 2.988-.058 4.042-.124 2.687-1.386 3.975-4.099 4.099-1.055.048-1.37.058-4.042.058-2.67 0-2.986-.01-4.04-.058-2.717-.124-3.976-1.416-4.1-4.1-.048-1.054-.058-1.37-.058-4.041 0-2.67.01-2.986.058-4.04.124-2.69 1.387-3.977 4.1-4.1 1.054-.048 1.37-.058 4.04-.058zm0-1.802C7.618 0 7.278.012 6.211.06 2.579.227.56 2.242.394 5.877.345 6.944.334 7.284.334 10s.011 3.057.06 4.123c.166 3.632 2.181 5.65 5.816 5.817 1.068.048 1.408.06 4.123.06 2.716 0 3.057-.012 4.124-.06 3.628-.167 5.651-2.182 5.816-5.817.049-1.066.06-1.407.06-4.123s-.011-3.056-.06-4.122C20.11 2.249 18.093.228 14.458.06 13.39.01 13.049 0 10.333 0zm0 4.865a5.135 5.135 0 100 10.27 5.135 5.135 0 000-10.27zm0 8.468a3.333 3.333 0 110-6.666 3.333 3.333 0 010 6.666zm5.339-9.87a1.2 1.2 0 10-.001 2.4 1.2 1.2 0 000-2.4z"/>
	</symbol>

	<!--	Indian rupee-->
	<symbol id="icon-rupee" viewBox="0 0 24 24">
		<path d="M17 6V4H6v2h3.5c1.302 0 2.401.838 2.815 2H6v2h6.315A2.994 2.994 0 0 1 9.5 12H6v2.414L11.586 20h2.828l-6-6H9.5a5.007 5.007 0 0 0 4.898-4H17V8h-2.602a4.933 4.933 0 0 0-.924-2H17z"/>
	</symbol>

	<!--Signal-->
	<symbol id="icon-signal" viewBox="0 0 24 24">
		<path d="M6,15a1,1,0,0,0-1,1v3a1,1,0,0,0,2,0V16A1,1,0,0,0,6,15Zm4-3a1,1,0,0,0-1,1v6a1,1,0,0,0,2,0V13A1,1,0,0,0,10,12Zm8-8a1,1,0,0,0-1,1V19a1,1,0,0,0,2,0V5A1,1,0,0,0,18,4ZM14,8a1,1,0,0,0-1,1V19a1,1,0,0,0,2,0V9A1,1,0,0,0,14,8Z"/>
	</symbol>

	<!--	pull request-->
	<symbol id="icon-request" viewBox="0 0 1024 1024" class="icon">
		<path d="M788 705.9V192c0-8.8-7.2-16-16-16H602v-68.8c0-6-7-9.4-11.7-5.7L462.7 202.3a7.14 7.14 0 0 0 0 11.3l127.5 100.8c4.7 3.7 11.7.4 11.7-5.7V240h114v465.9c-44.2 15-76 56.9-76 106.1 0 61.8 50.2 112 112 112s112-50.2 112-112c.1-49.2-31.7-91-75.9-106.1zM752 860a48.01 48.01 0 0 1 0-96 48.01 48.01 0 0 1 0 96zM384 212c0-61.8-50.2-112-112-112s-112 50.2-112 112c0 49.2 31.8 91 76 106.1V706c-44.2 15-76 56.9-76 106.1 0 61.8 50.2 112 112 112s112-50.2 112-112c0-49.2-31.8-91-76-106.1V318.1c44.2-15.1 76-56.9 76-106.1zm-160 0a48.01 48.01 0 0 1 96 0 48.01 48.01 0 0 1-96 0zm96 600a48.01 48.01 0 0 1-96 0 48.01 48.01 0 0 1 96 0z"/>
	</symbol>
</svg>
