<svg xmlns="http://www.w3.org/2000/svg">
    <symbol id="icon-message" viewBox="0 0 24 24">
        <path d="M0 0h24v24H0V0z" fill="none"/>
        <path d="M20 17.17L18.83 16H4V4h16v13.17zM20 2H4c-1.1 0-2 .9-2 2v12c0 1.1.9 2 2 2h14l4 4V4c0-1.1-.9-2-2-2z"/>
    </symbol>

    <symbol id="icon-notification" viewBox="0 0 24 24">
        <path d="M0 0h24v24H0V0z" fill="none"/>
        <path d="M12 22c1.1 0 2-.9 2-2h-4c0 1.1.9 2 2 2zm6-6v-5c0-3.07-1.63-5.64-4.5-6.32V4c0-.83-.67-1.5-1.5-1.5s-1.5.67-1.5 1.5v.68C7.64 5.36 6 7.92 6 11v5l-2 2v1h16v-1l-2-2zm-2 1H8v-6c0-2.48 1.51-4.5 4-4.5s4 2.02 4 4.5v6z"/>
    </symbol>

    <symbol id="icon-dropdown" viewBox="0 0 24 24">
        <path d="M0 0h24v24H0z" fill="none"/>
        <path d="M16.59 8.59L12 13.17 7.41 8.59 6 10l6 6 6-6z"/>
    </symbol>

    <symbol id="icon-individual" viewBox="0 0 971.44041 662">
        <defs>
            <linearGradient id="afa9b5ae-644d-481c-a512-b5b81b77e42b" x1="979.44552" y1="738.58992" x2="979.44552"
                            y2="646.78456" gradientUnits="userSpaceOnUse">
                <stop offset="0" stop-color="gray" stop-opacity="0.25"/>
                <stop offset="0.53514" stop-color="gray" stop-opacity="0.12"/>
                <stop offset="1" stop-color="gray" stop-opacity="0.1"/>
            </linearGradient>
            <linearGradient id="bf9220ea-365d-417c-960f-9ff5535a2d22" x1="600.65162" y1="650.10521" x2="600.65162"
                            y2="119"/>
            <linearGradient id="b4202d31-0de8-4369-b735-813ee4300deb" x1="485.7202" y1="615.59838" x2="485.7202"
                            y2="377.70425"/>
        </defs>
        <title>Designer</title>
        <path d="M260.11393,656.80937c-6.98452,26.59789-31.459,43.21966-31.459,43.21966s-13.15033-26.50193-6.16581-53.09982,31.459-43.21966,31.459-43.21966S267.09845,630.21148,260.11393,656.80937Z"
              transform="translate(-114.2798 -119)" fill="#3f3d56"/>
        <path d="M249.52,651.18266c-19.56251,19.32716-21.75117,48.83128-21.75117,48.83128s29.52845-1.83141,49.091-21.15858,21.75116-48.83129,21.75116-48.83129S269.08248,631.85549,249.52,651.18266Z"
              transform="translate(-114.2798 -119)" fill="#6c63ff"/>
        <rect x="68.05348" y="573.24114" width="106.91603" height="45.49618" rx="15.19753" fill="#6c63ff"/>
        <g opacity="0.7">
            <path d="M1009.77408,663.17837V646.78456H927.805V722.606a15.984,15.984,0,0,0,15.984,15.984h50.00113a15.984,15.984,0,0,0,15.984-15.984V705.80229a21.312,21.312,0,0,0,0-42.62392Zm0,34.427v-26.2301a13.115,13.115,0,0,1,0,26.2301Z"
                  transform="translate(-114.2798 -119)" fill="url(#afa9b5ae-644d-481c-a512-b5b81b77e42b)"/>
        </g>
        <path d="M1007.13681,665.74436a19.45875,19.45875,0,1,0,19.45875,19.45874A19.45877,19.45877,0,0,0,1007.13681,665.74436Zm0,31.43336a11.97462,11.97462,0,1,1,11.97461-11.97462A11.97462,11.97462,0,0,1,1007.13681,697.17772Z"
              transform="translate(-114.2798 -119)" fill="#6c63ff"/>
        <path d="M1007.13681,665.74436a19.45875,19.45875,0,1,0,19.45875,19.45874A19.45877,19.45877,0,0,0,1007.13681,665.74436Zm0,31.43336a11.97462,11.97462,0,1,1,11.97461-11.97462A11.97462,11.97462,0,0,1,1007.13681,697.17772Z"
              transform="translate(-114.2798 -119)" opacity="0.1"/>
        <path d="M818.01569,531.77609H892.857a0,0,0,0,1,0,0v74.07228a9.75,9.75,0,0,1-9.75,9.75H827.76569a9.75,9.75,0,0,1-9.75-9.75V531.77609A0,0,0,0,1,818.01569,531.77609Z"
              fill="#6c63ff"/>
        <rect y="615.59838" width="971.44041" height="32.93018" fill="#e0e0e0"/>
        <g opacity="0.7">
            <path d="M753.24926,514.26464c-10.41165-37.79179-69.43785-65.38862-113.8507-71.50773.006-.27882.02112-.55536.02112-.83569V409.571c.04726-.01733.09584-.03182.143-.04925v-1.22615A110.93933,110.93933,0,0,0,706.57314,338.064a119.882,119.882,0,0,0,7.14989-15.41561c4.74115-1.72629,8.322-9.54462,8.322-18.93884a33.06945,33.06945,0,0,0-1.3381-9.49537,121.52779,121.52779,0,0,0,.88891-14.41912,120.17944,120.17944,0,0,0-39.6966-89.38228,23.44841,23.44841,0,0,0,.37522-5.87723c-1.00473-15.52708-17.58929-26.07586-33.13284-26.78142a32.8005,32.8005,0,0,0,5.53147-34.63658c-9.91113,14.43929-30.25853,15.97418-47.77168,16.08774,7.55675-2.9265,10.95734-13.39715,6.56225-20.20525-18.30375,24.53386-53.985,29.07689-75.75576,50.59371a63.8633,63.8633,0,0,0-11.77976,16.06661,120.24089,120.24089,0,0,0-45.31946,94.1347,121.55587,121.55587,0,0,0,.87233,14.28918,32.96391,32.96391,0,0,0-1.38014,9.62531c0,9.43741,3.61453,17.27988,8.38807,18.95778a119.88387,119.88387,0,0,0,7.18266,15.46665,110.91725,110.91725,0,0,0,66.54128,69.98516v33.80212c0,.26025.01449.51691.0196.77593-44.58123,6.01408-104.079,33.82817-114.39809,71.92387-8.91132,32.89854-18.42365,69.02824-23.15665,90.24078,40.56827,28.50553,125.69315,45.24341,179.04119,45.24341,50.6869,0,133.53278-15.10715,172.90663-41.06339C772.36065,585.734,762.54821,548.0178,753.24926,514.26464Z"
                  transform="translate(-114.2798 -119)" fill="url(#bf9220ea-365d-417c-960f-9ff5535a2d22)"/>
        </g>
        <path d="M603.61048,640.72159c48.89581,0,128.8143-14.57335,166.79676-39.61233-4.11411-22.48424-13.57985-58.86769-22.55024-91.42816-11.42431-41.46766-83.52767-70.216-126.54025-70.216h-41.4486c-43.1459,0-115.35328,28.91469-126.6338,70.55985-8.5964,31.736-17.77266,66.589-22.33837,87.05194C470.03068,624.57518,552.14757,640.72159,603.61048,640.72159Z"
              transform="translate(-114.2798 -119)" fill="#6c63ff"/>
        <circle cx="486.8065" cy="164.49683" r="116.23581" fill="#72351c"/>
        <path d="M449.29134,261.31116H523.77a0,0,0,0,1,0,0v59.58294a37.23927,37.23927,0,0,1-37.23927,37.23927h-.00007a37.23927,37.23927,0,0,1-37.23927-37.23927V261.31116A0,0,0,0,1,449.29134,261.31116Z"
              opacity="0.1"/>
        <path d="M459.97433,258.55269H513.087a10.683,10.683,0,0,1,10.683,10.683v48.89994a37.23927,37.23927,0,0,1-37.23927,37.23927h-.00007a37.23927,37.23927,0,0,1-37.23927-37.23927V269.23568A10.683,10.683,0,0,1,459.97433,258.55269Z"
              fill="#fda57d"/>
        <path d="M563.70906,408.43366a107.19075,107.19075,0,0,0,74.47862.20587v-9.14914H563.70906Z"
              transform="translate(-114.2798 -119)" opacity="0.1"/>
        <circle cx="486.8065" cy="187.66796" r="106.75269" fill="#fda57d"/>
        <path d="M525.04613,209.56488S570.036,300.88751,696.94755,247.8398L667.402,201.507l-52.37621-18.80172Z"
              transform="translate(-114.2798 -119)" opacity="0.1"/>
        <path d="M525.04613,208.2219s44.98982,91.32263,171.90142,38.27492L667.402,200.164,615.02578,181.3623Z"
              transform="translate(-114.2798 -119)" fill="#72351c"/>
        <path d="M524.64663,202.0522a61.66959,61.66959,0,0,1,15.28543-24.86262c21.00146-20.75652,55.42186-25.13895,73.07881-48.80594,4.23984,6.56758.95939,16.66822-6.33032,19.49128,16.89431-.10957,36.52273-1.59016,46.08358-15.51925a31.6415,31.6415,0,0,1-5.336,33.4127c14.99426.68059,30.99283,10.85661,31.962,25.835.64565,9.97871-5.6112,19.42651-13.81131,25.14924s-18.12112,8.34985-27.88617,10.50284C609.18758,233.54021,506.04616,259.8821,524.64663,202.0522Z"
              transform="translate(-114.2798 -119)" fill="#72351c"/>
        <path d="M707.83565,307.60241h-2.83022l-55.06218,49.01876c-53.0477-24.84513-91.99411,0-91.99411,0L500.201,309.61688l-5.82291.73165a106.75011,106.75011,0,0,0,213.45756-2.74612ZM600.92449,375.42289c-20.76778,0-37.60344-4.209-37.60344-9.40086s16.83566-9.40086,37.60344-9.40086,37.60344,4.20894,37.60344,9.40086S621.69227,375.42289,600.92449,375.42289Z"
              transform="translate(-114.2798 -119)" fill="#72351c"/>
        <ellipse cx="380.01131" cy="187.56625" rx="9.93048" ry="18.61966" fill="#fda57d"/>
        <ellipse cx="593.54511" cy="187.56625" rx="9.93048" ry="18.61966" fill="#fda57d"/>
        <g opacity="0.7">
            <rect x="279.15815" y="377.70425" width="413.12412" height="237.89413" rx="14.5"
                  fill="url(#b4202d31-0de8-4369-b735-813ee4300deb)"/>
        </g>
        <rect x="286.64228" y="382.09344" width="398.15585" height="233.50494" rx="26.83505" fill="#535461"/>
        <circle cx="485.7202" cy="498.84591" r="13.47144" fill="#fff"/>
        <rect x="41.16273" y="648.52856" width="889.11495" height="13.47144" fill="#e0e0e0"/>
        <rect x="41.16273" y="648.52856" width="889.11495" height="4.49048" opacity="0.1"/>
        <path d="M993.66537,650.77609v69.22823a14.59407,14.59407,0,0,1-14.59405,14.59406h7.48413a14.59408,14.59408,0,0,0,14.59406-14.59406V650.77609Z"
              transform="translate(-114.2798 -119)" opacity="0.1"/>
        <path d="M947.06443,594.97939c-1.26234.216-2.68649.55668-3.30507,1.67806-.98172,1.77969.79727,3.7863,2.42071,5.0092,2.99922,2.25925,6.16039,4.47845,8.19907,7.63175s2.67912,7.5539.45056,10.576c-2.9099,3.94605-9.85229,4.79489-10.52416,9.65158-.43133,3.11795,2.26418,5.77847,4.99546,7.343,6.74142,3.86165,15.432,4.89187,20.3151,10.93461,2.02-4.15378,6.53823-6.55488,11.04189-7.58024s9.183-.94882,13.7492-1.6444c1.47405-.22454,3.13458-.67474,3.79362-2.01224,1.27644-2.59048-2.36152-5.69737-1.1059-8.298.95565-1.97936,3.763-1.82565,5.81307-2.61832,3.33807-1.29069,4.71459-5.58675,3.76717-9.038s-3.62359-6.14839-6.4377-8.3597c-7.58411-5.95952-16.70353-9.46426-25.92726-11.98516-4.2899-1.17245-9.32574-3.01108-13.78142-3.18882C956.2274,592.90716,951.32174,594.25107,947.06443,594.97939Z"
              transform="translate(-114.2798 -119)" fill="#eee"/>
    </symbol>

    <!--Users-->
    <symbol id="icon-users" viewBox="0 0 24 24">
        <path d="M7.5,13A4.5,4.5,0,1,1,12,8.5,4.505,4.505,0,0,1,7.5,13Zm0-7A2.5,2.5,0,1,0,10,8.5,2.5,2.5,0,0,0,7.5,6ZM15,23v-.5a7.5,7.5,0,0,0-15,0V23a1,1,0,0,0,2,0v-.5a5.5,5.5,0,0,1,11,0V23a1,1,0,0,0,2,0Zm9-5a7,7,0,0,0-11.667-5.217,1,1,0,1,0,1.334,1.49A5,5,0,0,1,22,18a1,1,0,0,0,2,0ZM17.5,9A4.5,4.5,0,1,1,22,4.5,4.505,4.505,0,0,1,17.5,9Zm0-7A2.5,2.5,0,1,0,20,4.5,2.5,2.5,0,0,0,17.5,2Z"/>
    </symbol>

    <!--User add-->
    <symbol id="icon-user-add" viewBox="0 0 24 24">
        <path d="M23,11H21V9a1,1,0,0,0-2,0v2H17a1,1,0,0,0,0,2h2v2a1,1,0,0,0,2,0V13h2a1,1,0,0,0,0-2Z"/>
        <path d="M9,12A6,6,0,1,0,3,6,6.006,6.006,0,0,0,9,12ZM9,2A4,4,0,1,1,5,6,4,4,0,0,1,9,2Z"/>
        <path d="M9,14a9.01,9.01,0,0,0-9,9,1,1,0,0,0,2,0,7,7,0,0,1,14,0,1,1,0,0,0,2,0A9.01,9.01,0,0,0,9,14Z"/>
    </symbol>

    <!--User delete-->
    <symbol id="icon-user-delete" viewBox="0 0 24 24">
        <path d="M17,24a1,1,0,0,1-1-1A7,7,0,0,0,2,23a1,1,0,0,1-2,0,9,9,0,0,1,18,0A1,1,0,0,1,17,24Zm6-11H17a1,1,0,0,1,0-2h6a1,1,0,0,1,0,2ZM9,12a6,6,0,1,1,6-6A6.006,6.006,0,0,1,9,12ZM9,2a4,4,0,1,0,4,4A4,4,0,0,0,9,2Z"/>
    </symbol>

    <symbol id="icon-document" viewBox="0 0 24 24">
        <path d="M17,14a1,1,0,0,1-1,1H8a1,1,0,0,1,0-2h8A1,1,0,0,1,17,14Zm-4,3H8a1,1,0,0,0,0,2h5a1,1,0,0,0,0-2Zm9-6.515V19a5.006,5.006,0,0,1-5,5H7a5.006,5.006,0,0,1-5-5V5A5.006,5.006,0,0,1,7,0h4.515a6.958,6.958,0,0,1,4.95,2.05l3.484,3.486A6.951,6.951,0,0,1,22,10.485ZM15.051,3.464A5.01,5.01,0,0,0,14,2.684V7a1,1,0,0,0,1,1h4.316a4.983,4.983,0,0,0-.781-1.05ZM20,10.485c0-.165-.032-.323-.047-.485H15a3,3,0,0,1-3-3V2.047C11.838,2.032,11.679,2,11.515,2H7A3,3,0,0,0,4,5V19a3,3,0,0,0,3,3H17a3,3,0,0,0,3-3Z"/>
    </symbol>

    <!--Search-->
    <symbol id="icon-search" viewBox="0 0 24 24">
        <path d="M23.707,22.293l-5.969-5.969a10.016,10.016,0,1,0-1.414,1.414l5.969,5.969a1,1,0,0,0,1.414-1.414ZM10,18a8,8,0,1,1,8-8A8.009,8.009,0,0,1,10,18Z"/>
    </symbol>

    <!--Dashboard-->
    <symbol id="icon-apps" viewBox="0 0 24 24">
        <path d="M7,0H4A4,4,0,0,0,0,4V7a4,4,0,0,0,4,4H7a4,4,0,0,0,4-4V4A4,4,0,0,0,7,0ZM9,7A2,2,0,0,1,7,9H4A2,2,0,0,1,2,7V4A2,2,0,0,1,4,2H7A2,2,0,0,1,9,4Z"/>
        <path d="M20,0H17a4,4,0,0,0-4,4V7a4,4,0,0,0,4,4h3a4,4,0,0,0,4-4V4A4,4,0,0,0,20,0Zm2,7a2,2,0,0,1-2,2H17a2,2,0,0,1-2-2V4a2,2,0,0,1,2-2h3a2,2,0,0,1,2,2Z"/>
        <path d="M7,13H4a4,4,0,0,0-4,4v3a4,4,0,0,0,4,4H7a4,4,0,0,0,4-4V17A4,4,0,0,0,7,13Zm2,7a2,2,0,0,1-2,2H4a2,2,0,0,1-2-2V17a2,2,0,0,1,2-2H7a2,2,0,0,1,2,2Z"/>
        <path d="M20,13H17a4,4,0,0,0-4,4v3a4,4,0,0,0,4,4h3a4,4,0,0,0,4-4V17A4,4,0,0,0,20,13Zm2,7a2,2,0,0,1-2,2H17a2,2,0,0,1-2-2V17a2,2,0,0,1,2-2h3a2,2,0,0,1,2,2Z"/>
    </symbol>

    <!--Settings-->
    <symbol id="icon-settings" viewBox="0 0 24 24">
        <path d="M12,8a4,4,0,1,0,4,4A4,4,0,0,0,12,8Zm0,6a2,2,0,1,1,2-2A2,2,0,0,1,12,14Z"/>
        <path d="M21.294,13.9l-.444-.256a9.1,9.1,0,0,0,0-3.29l.444-.256a3,3,0,1,0-3-5.2l-.445.257A8.977,8.977,0,0,0,15,3.513V3A3,3,0,0,0,9,3v.513A8.977,8.977,0,0,0,6.152,5.159L5.705,4.9a3,3,0,0,0-3,5.2l.444.256a9.1,9.1,0,0,0,0,3.29l-.444.256a3,3,0,1,0,3,5.2l.445-.257A8.977,8.977,0,0,0,9,20.487V21a3,3,0,0,0,6,0v-.513a8.977,8.977,0,0,0,2.848-1.646l.447.258a3,3,0,0,0,3-5.2Zm-2.548-3.776a7.048,7.048,0,0,1,0,3.75,1,1,0,0,0,.464,1.133l1.084.626a1,1,0,0,1-1,1.733l-1.086-.628a1,1,0,0,0-1.215.165,6.984,6.984,0,0,1-3.243,1.875,1,1,0,0,0-.751.969V21a1,1,0,0,1-2,0V19.748a1,1,0,0,0-.751-.969A6.984,6.984,0,0,1,7.006,16.9a1,1,0,0,0-1.215-.165l-1.084.627a1,1,0,1,1-1-1.732l1.084-.626a1,1,0,0,0,.464-1.133,7.048,7.048,0,0,1,0-3.75A1,1,0,0,0,4.79,8.992L3.706,8.366a1,1,0,0,1,1-1.733l1.086.628A1,1,0,0,0,7.006,7.1a6.984,6.984,0,0,1,3.243-1.875A1,1,0,0,0,11,4.252V3a1,1,0,0,1,2,0V4.252a1,1,0,0,0,.751.969A6.984,6.984,0,0,1,16.994,7.1a1,1,0,0,0,1.215.165l1.084-.627a1,1,0,1,1,1,1.732l-1.084.626A1,1,0,0,0,18.746,10.125Z"/>
    </symbol>

    <!--Activity-->
    <symbol id="icon-activity" viewBox="0 0 24 24">
        <path d="M12,0A12,12,0,1,0,24,12,12.013,12.013,0,0,0,12,0Zm0,22A10,10,0,1,1,22,12,10.011,10.011,0,0,1,12,22Z"/>
        <path d="M12,6a1,1,0,0,0-1,1v4.325L7.629,13.437a1,1,0,0,0,1.062,1.7l3.84-2.4A1,1,0,0,0,13,11.879V7A1,1,0,0,0,12,6Z"/>
    </symbol>

    <!--List check-->
    <symbol id="icon-list-check" viewBox="0 0 24 24">
        <path d="M4,6a2.982,2.982,0,0,1-2.122-.879L.334,3.747A1,1,0,0,1,1.666,2.253L3.251,3.667a1,1,0,0,0,1.456.04L8.311.276A1,1,0,0,1,9.689,1.724L6.1,5.138A2.964,2.964,0,0,1,4,6ZM24,4a1,1,0,0,0-1-1H13a1,1,0,0,0,0,2H23A1,1,0,0,0,24,4ZM6.1,13.138,9.689,9.724A1,1,0,1,0,8.311,8.276l-3.6,3.431a1.023,1.023,0,0,1-1.414,0L1.707,10.122A1,1,0,0,0,.293,11.536l1.585,1.585a3,3,0,0,0,4.226.017ZM24,12a1,1,0,0,0-1-1H13a1,1,0,0,0,0,2H23A1,1,0,0,0,24,12ZM6.1,21.138l3.585-3.414a1,1,0,1,0-1.378-1.448l-3.6,3.431a1,1,0,0,1-1.456-.04L1.666,18.253A1,1,0,0,0,.334,19.747l1.544,1.374a3,3,0,0,0,4.226.017ZM24,20a1,1,0,0,0-1-1H13a1,1,0,0,0,0,2H23A1,1,0,0,0,24,20Z"/>
    </symbol>

    <!--search-->
    <symbol id="icon-search" viewBox="0 0 24 24">
        <path d="M23.707,22.293l-5.969-5.969a10.016,10.016,0,1,0-1.414,1.414l5.969,5.969a1,1,0,0,0,1.414-1.414ZM10,18a8,8,0,1,1,8-8A8.009,8.009,0,0,1,10,18Z"/>
    </symbol>

    <!--Angle right-->
    <symbol id="icon-angle-right" viewBox="0 0 24 24">
        <path d="M7,24a1,1,0,0,1-.707-1.707l8.172-8.172a3,3,0,0,0,0-4.242L6.293,1.707A1,1,0,0,1,7.707.293l8.172,8.172a5.005,5.005,0,0,1,0,7.07L7.707,23.707A1,1,0,0,1,7,24Z"/>
    </symbol>

    <!--Forward-->
    <symbol id="icon-forward" viewBox="0 0 24 24">
        <path d="M0,23V16A9.01,9.01,0,0,1,9,7h4.83V5.414A2,2,0,0,1,17.244,4l5.88,5.879a3,3,0,0,1,0,4.242L17.244,20a2,2,0,0,1-3.414-1.414V17H8a6.006,6.006,0,0,0-6,6,1,1,0,0,1-2,0ZM15.83,8a1,1,0,0,1-1,1H9a7.008,7.008,0,0,0-7,7v1.714A7.984,7.984,0,0,1,8,15h6.83a1,1,0,0,1,1,1v2.586l5.879-5.879a1,1,0,0,0,0-1.414L15.83,5.414Z"/>
    </symbol>

    <!--Reply-->
    <symbol id="icon-reply" viewBox="0 0 24 24">
        <path d="M23,24a1,1,0,0,1-1-1,6.006,6.006,0,0,0-6-6H10.17v1.586A2,2,0,0,1,6.756,20L.877,14.121a3,3,0,0,1,0-4.242L6.756,4A2,2,0,0,1,10.17,5.414V7H15a9.01,9.01,0,0,1,9,9v7A1,1,0,0,1,23,24ZM8.17,5.414,2.291,11.293a1,1,0,0,0,0,1.414L8.17,18.586V16a1,1,0,0,1,1-1H16a7.984,7.984,0,0,1,6,2.714V16a7.008,7.008,0,0,0-7-7H9.17a1,1,0,0,1-1-1Z"/>
    </symbol>

    <!--Trash-->
    <svg id="icon-trash" viewBox="0 0 24 24">
        <path d="M21,4H17.9A5.009,5.009,0,0,0,13,0H11A5.009,5.009,0,0,0,6.1,4H3A1,1,0,0,0,3,6H4V19a5.006,5.006,0,0,0,5,5h6a5.006,5.006,0,0,0,5-5V6h1a1,1,0,0,0,0-2ZM11,2h2a3.006,3.006,0,0,1,2.829,2H8.171A3.006,3.006,0,0,1,11,2Zm7,17a3,3,0,0,1-3,3H9a3,3,0,0,1-3-3V6H18Z"/>
        <path d="M10,18a1,1,0,0,0,1-1V11a1,1,0,0,0-2,0v6A1,1,0,0,0,10,18Z"/>
        <path d="M14,18a1,1,0,0,0,1-1V11a1,1,0,0,0-2,0v6A1,1,0,0,0,14,18Z"/>
    </svg>

    <!--    clip-->
    <symbol id="icon-clip" viewBox="0 0 24 24">
        <path d="M22.95,9.6a1,1,0,0,0-1.414,0L10.644,20.539a5,5,0,1,1-7.072-7.071L14.121,2.876a3,3,0,0,1,4.243,4.242L7.815,17.71a1.022,1.022,0,0,1-1.414,0,1,1,0,0,1,0-1.414l9.392-9.435a1,1,0,0,0-1.414-1.414L4.987,14.882a3,3,0,0,0,0,4.243,3.073,3.073,0,0,0,4.243,0L19.778,8.532a5,5,0,0,0-7.071-7.07L2.158,12.054a7,7,0,0,0,9.9,9.9L22.95,11.018A1,1,0,0,0,22.95,9.6Z"/>
    </symbol>

    <!--plus small-->
    <symbol id="icon-plus-sm" viewBox="0 0 24 24">
        <path d="M17,11H13V7a1,1,0,0,0-1-1h0a1,1,0,0,0-1,1v4H7a1,1,0,0,0-1,1H6a1,1,0,0,0,1,1h4v4a1,1,0,0,0,1,1h0a1,1,0,0,0,1-1V13h4a1,1,0,0,0,1-1h0A1,1,0,0,0,17,11Z"/>
    </symbol>

    <!--shuffle-->
    <symbol id="icon-shuffle" viewBox="0 0 24 24">
        <path d="M23.421,16.583,20.13,13.292a1,1,0,1,0-1.413,1.414L21.007,17A9.332,9.332,0,0,1,14.321,14.2a.982.982,0,0,0-1.408.08L12.9,14.3a1,1,0,0,0,.075,1.382A11.177,11.177,0,0,0,21.01,19l-2.293,2.293A1,1,0,1,0,20.13,22.7l3.291-3.291A2,2,0,0,0,23.421,16.583Z"/>
        <path d="M21.007,7l-2.29,2.29a.892.892,0,0,0-.054.082.992.992,0,0,0,1.467,1.332L21.836,9l1.586-1.585a2,2,0,0,0,.457-2.1,1.969,1.969,0,0,0-.458-.728L20.13,1.3a1,1,0,1,0-1.413,1.413L21.01,5.005c-4.933.012-7.637,2.674-10.089,5.474C8.669,7.937,6,5.4,1.487,5.046L1.006,5a1,1,0,0,0-1,1,1.02,1.02,0,0,0,1,1c.072,0,.287.033.287.033C5.189,7.328,7.425,9.522,9.6,12c-2.162,2.466-4.383,4.7-8.247,4.96l-.4.021a.994.994,0,1,0,.124,1.985c.156-.007.41-.013.535-.023,5.02-.387,7.743-3.6,10.171-6.409C14.235,9.7,16.551,7.018,21.007,7Z"/>
    </symbol>

    <!--time past-->
    <symbol id="icon-time-past" viewBox="0 0 24 24">
        <path d="M12,6a1,1,0,0,0-1,1v5a1,1,0,0,0,.293.707l3,3a1,1,0,0,0,1.414-1.414L13,11.586V7A1,1,0,0,0,12,6Z"/>
        <path d="M23.812,10.132A12,12,0,0,0,3.578,3.415V1a1,1,0,0,0-2,0V5a2,2,0,0,0,2,2h4a1,1,0,0,0,0-2H4.827a9.99,9.99,0,1,1-2.835,7.878A.982.982,0,0,0,1,12a1.007,1.007,0,0,0-1,1.1,12,12,0,1,0,23.808-2.969Z"/>
    </symbol>

    <!--credit card-->
    <symbol id="icon-credit-card" viewBox="0 0 24 24"
            style="enable-background:new 0 0 24 24;" xml:space="preserve">
        <circle cx="5.5" cy="15.5" r="1.5"/>
        <path d="M19,3H5C2.2,3,0,5.2,0,8v8c0,2.8,2.2,5,5,5h14c2.8,0,5-2.2,5-5V8C24,5.2,21.8,3,19,3z M5,5h14c1.7,0,3,1.3,3,3H2  C2,6.3,3.3,5,5,5z M19,19H5c-1.7,0-3-1.3-3-3v-6h20v6C22,17.7,20.7,19,19,19z"/>
    </symbol>

    <!--dashboard-->
    <symbol id="icon-dashboard" viewBox="0 0 24 24">
        <path d="M23.9,11.437A12,12,0,0,0,0,13a11.878,11.878,0,0,0,3.759,8.712A4.84,4.84,0,0,0,7.113,23H16.88a4.994,4.994,0,0,0,3.509-1.429A11.944,11.944,0,0,0,23.9,11.437Zm-4.909,8.7A3,3,0,0,1,16.88,21H7.113a2.862,2.862,0,0,1-1.981-.741A9.9,9.9,0,0,1,2,13,10.014,10.014,0,0,1,5.338,5.543,9.881,9.881,0,0,1,11.986,3a10.553,10.553,0,0,1,1.174.066,9.994,9.994,0,0,1,5.831,17.076ZM7.807,17.285a1,1,0,0,1-1.4,1.43A8,8,0,0,1,12,5a8.072,8.072,0,0,1,1.143.081,1,1,0,0,1,.847,1.133.989.989,0,0,1-1.133.848,6,6,0,0,0-5.05,10.223Zm12.112-5.428A8.072,8.072,0,0,1,20,13a7.931,7.931,0,0,1-2.408,5.716,1,1,0,0,1-1.4-1.432,5.98,5.98,0,0,0,1.744-5.141,1,1,0,0,1,1.981-.286Zm-5.993.631a2.033,2.033,0,1,1-1.414-1.414l3.781-3.781a1,1,0,1,1,1.414,1.414Z"/>
    </symbol>

    <!--Layers-->
    <symbol id="icon-layers" viewBox="0 0 24 24">
        <path d="M22.485,10.975,12,17.267,1.515,10.975A1,1,0,1,0,.486,12.69l11,6.6a1,1,0,0,0,1.03,0l11-6.6a1,1,0,1,0-1.029-1.715Z"/>
        <path d="M22.485,15.543,12,21.834,1.515,15.543A1,1,0,1,0,.486,17.258l11,6.6a1,1,0,0,0,1.03,0l11-6.6a1,1,0,1,0-1.029-1.715Z"/>
        <path d="M12,14.773a2.976,2.976,0,0,1-1.531-.425L.485,8.357a1,1,0,0,1,0-1.714L10.469.652a2.973,2.973,0,0,1,3.062,0l9.984,5.991a1,1,0,0,1,0,1.714l-9.984,5.991A2.976,2.976,0,0,1,12,14.773ZM2.944,7.5,11.5,12.633a.974.974,0,0,0,1,0L21.056,7.5,12.5,2.367a.974.974,0,0,0-1,0h0Z"/>
    </symbol>

    <!--search button-->
    <symbol id="icon-search-button" viewBox="0 0 24 24">
        <path d="M15.5 14h-.79l-.28-.27C15.41 12.59 16 11.11 16 9.5 16 5.91 13.09 3 9.5 3S3 5.91 3 9.5 5.91 16 9.5 16c1.61 0 3.09-.59 4.23-1.57l.27.28v.79l5 4.99L20.49 19l-4.99-5zm-6 0C7.01 14 5 11.99 5 9.5S7.01 5 9.5 5 14 7.01 14 9.5 11.99 14 9.5 14z"/>
        <path d="M0 0h24v24H0z"
              fill="none"/>
    </symbol>

    <!--bank-->
    <symbol id="icon-bank" viewBox="0 0 24 24">
        <path d="M24,23a1,1,0,0,1-1,1H1a1,1,0,0,1,0-2H23A1,1,0,0,1,24,23ZM.291,8.552A2.443,2.443,0,0,1,.444,5.986a4.716,4.716,0,0,1,1.668-1.5L9.613.582a5.174,5.174,0,0,1,4.774,0l7.5,3.907h0a4.716,4.716,0,0,1,1.668,1.5,2.443,2.443,0,0,1,.153,2.566A2.713,2.713,0,0,1,21.292,10H21v8h1a1,1,0,0,1,0,2H2a1,1,0,0,1,0-2H3V10H2.708A2.713,2.713,0,0,1,.291,8.552ZM5,18H8V10H5Zm5-8v8h4V10Zm9,0H16v8h3ZM2.063,7.625A.717.717,0,0,0,2.708,8H21.292a.717.717,0,0,0,.645-.375.452.452,0,0,0-.024-.5,2.7,2.7,0,0,0-.949-.864h0l-7.5-3.907a3.176,3.176,0,0,0-2.926,0l-7.5,3.907a2.712,2.712,0,0,0-.949.865A.452.452,0,0,0,2.063,7.625Z"/>
    </symbol>

   <!--Umbrella-->
    <symbol id="icon-umbrella" viewBox="0 0 24 24">
        <path d="M23.717,9.549A12.834,12.834,0,0,0,13,2.043V1a1,1,0,0,0-2,0V2.043A12.843,12.843,0,0,0,.267,9.549a3.945,3.945,0,0,0,.405,3.682A4.015,4.015,0,0,0,4,15h7v6a1,1,0,0,1-2,0,1,1,0,0,0-2,0,3,3,0,0,0,6,0V15h6.983a4.017,4.017,0,0,0,3.329-1.769A3.948,3.948,0,0,0,23.717,9.549ZM21.656,12.11a1.993,1.993,0,0,1-1.673.89H4a1.992,1.992,0,0,1-1.673-.891,1.927,1.927,0,0,1-.2-1.818C3.581,6.646,7.734,4,12,4a10.809,10.809,0,0,1,9.859,6.291A1.923,1.923,0,0,1,21.656,12.11Z"/>
    </symbol>

    <!--arrow up small-->
    <symbol id="icon-arrow-up" viewBox="0 0 24 24">
        <path d="M6.293,10.879a1,1,0,0,0,1.414,0L11,7.587,11.007,18a1,1,0,0,0,2,0L13,7.586l3.293,3.293a1,1,0,1,0,1.414-1.414L14.122,5.879a3,3,0,0,0-4.243,0L6.293,9.465A1,1,0,0,0,6.293,10.879Z"/>
    </symbol>

    <!--arrow down small-->
    <symbol id="icon-arrow-down" viewBox="0 0 24 24">
        <path d="M17.707,13.121a1,1,0,0,0-1.414,0L13,16.413,12.993,6a1,1,0,0,0-2,0L11,16.414,7.707,13.121a1,1,0,1,0-1.414,1.414l3.585,3.586a3,3,0,0,0,4.243,0l3.586-3.586A1,1,0,0,0,17.707,13.121Z"/>
    </symbol>

    <!--calendar-->
    <symbol id="icon-calendar" viewBox="0 0 24 24">
        <path d="M19,2H18V1a1,1,0,0,0-2,0V2H8V1A1,1,0,0,0,6,1V2H5A5.006,5.006,0,0,0,0,7V19a5.006,5.006,0,0,0,5,5H19a5.006,5.006,0,0,0,5-5V7A5.006,5.006,0,0,0,19,2ZM2,7A3,3,0,0,1,5,4H19a3,3,0,0,1,3,3V8H2ZM19,22H5a3,3,0,0,1-3-3V10H22v9A3,3,0,0,1,19,22Z"/>
        <circle cx="12" cy="15" r="1.5"/>
        <circle cx="7" cy="15" r="1.5"/>
        <circle cx="17" cy="15" r="1.5"/>
    </symbol>

    <!--Notebook-->
    <symbol id="icon-notebook" viewBox="0 0 24 24">
        <path d="M19,3.022c0-.008,0-.014,0-.022V1a1,1,0,0,0-2,0V2.1A5,5,0,0,0,16,2H15V1a1,1,0,0,0-2,0V2H11V1A1,1,0,0,0,9,1V2H8a5,5,0,0,0-1,.1V1A1,1,0,0,0,5,1V3c0,.008,0,.014,0,.022A4.979,4.979,0,0,0,3,7V19a5.006,5.006,0,0,0,5,5h8a5.006,5.006,0,0,0,5-5V7A4.979,4.979,0,0,0,19,3.022ZM19,19a3,3,0,0,1-3,3H8a3,3,0,0,1-3-3V7A3,3,0,0,1,8,4h8a3,3,0,0,1,3,3ZM17,8a1,1,0,0,1-1,1H8A1,1,0,0,1,8,7h8A1,1,0,0,1,17,8Zm0,4a1,1,0,0,1-1,1H8a1,1,0,0,1,0-2h8A1,1,0,0,1,17,12Zm-4,4a1,1,0,0,1-1,1H8a1,1,0,0,1,0-2h4A1,1,0,0,1,13,16Z"/>
    </symbol>

    <!--Filter-->
    <symbol id="icon-filter" viewBox="0 0 24 24">
        <path d="M14,24a1,1,0,0,1-.6-.2l-4-3A1,1,0,0,1,9,20V14.38L1.984,6.487A3.9,3.9,0,0,1,4.9,0H19.1a3.9,3.9,0,0,1,2.913,6.488L15,14.38V23a1,1,0,0,1-1,1Zm-3-4.5L13,21V14a1,1,0,0,1,.253-.664l7.268-8.177A1.9,1.9,0,0,0,19.1,2H4.9A1.9,1.9,0,0,0,3.479,5.158l7.269,8.178A1,1,0,0,1,11,14Z"/>
    </symbol>

    <!--Money-->
    <symbol id="icon-money" viewBox="0 0 24 24">
        <path d="M19,20H5a5.006,5.006,0,0,1-5-5V9A5.006,5.006,0,0,1,5,4H19a5.006,5.006,0,0,1,5,5v6A5.006,5.006,0,0,1,19,20ZM5,6A3,3,0,0,0,2,9v6a3,3,0,0,0,3,3H19a3,3,0,0,0,3-3V9a3,3,0,0,0-3-3Zm7,10a4,4,0,1,1,4-4A4,4,0,0,1,12,16Zm0-6a2,2,0,1,0,2,2A2,2,0,0,0,12,10ZM5,8A1,1,0,1,0,6,9,1,1,0,0,0,5,8ZM18,9a1,1,0,1,0,1-1A1,1,0,0,0,18,9ZM5,14a1,1,0,1,0,1,1A1,1,0,0,0,5,14Zm13,1a1,1,0,1,0,1-1A1,1,0,0,0,18,15Z"/>
    </symbol>
</svg>
