<svg xmlns="http://www.w3.org/2000/svg">
    <symbol id="icon-message" viewBox="0 0 24 24">
        <path d="M0 0h24v24H0V0z" fill="none"/>
        <path d="M20 17.17L18.83 16H4V4h16v13.17zM20 2H4c-1.1 0-2 .9-2 2v12c0 1.1.9 2 2 2h14l4 4V4c0-1.1-.9-2-2-2z"/>
    </symbol>

    <symbol id="icon-notification" viewBox="0 0 24 24">
        <path d="M0 0h24v24H0V0z" fill="none"/>
        <path d="M12 22c1.1 0 2-.9 2-2h-4c0 1.1.9 2 2 2zm6-6v-5c0-3.07-1.63-5.64-4.5-6.32V4c0-.83-.67-1.5-1.5-1.5s-1.5.67-1.5 1.5v.68C7.64 5.36 6 7.92 6 11v5l-2 2v1h16v-1l-2-2zm-2 1H8v-6c0-2.48 1.51-4.5 4-4.5s4 2.02 4 4.5v6z"/>
    </symbol>

    <symbol id="icon-dropdown" viewBox="0 0 24 24">
        <path d="M0 0h24v24H0z" fill="none"/>
        <path d="M16.59 8.59L12 13.17 7.41 8.59 6 10l6 6 6-6z"/>
    </symbol>

    <!--User-->
    <symbol id="icon-user" viewBox="0 0 24 24">
        <path d="M12,12A6,6,0,1,0,6,6,6.006,6.006,0,0,0,12,12ZM12,2A4,4,0,1,1,8,6,4,4,0,0,1,12,2Z"/>
        <path d="M12,14a9.01,9.01,0,0,0-9,9,1,1,0,0,0,2,0,7,7,0,0,1,14,0,1,1,0,0,0,2,0A9.01,9.01,0,0,0,12,14Z"/>
    </symbol>

    <!--Users-->
    <symbol id="icon-users" viewBox="0 0 24 24">
        <path d="M7.5,13A4.5,4.5,0,1,1,12,8.5,4.505,4.505,0,0,1,7.5,13Zm0-7A2.5,2.5,0,1,0,10,8.5,2.5,2.5,0,0,0,7.5,6ZM15,23v-.5a7.5,7.5,0,0,0-15,0V23a1,1,0,0,0,2,0v-.5a5.5,5.5,0,0,1,11,0V23a1,1,0,0,0,2,0Zm9-5a7,7,0,0,0-11.667-5.217,1,1,0,1,0,1.334,1.49A5,5,0,0,1,22,18a1,1,0,0,0,2,0ZM17.5,9A4.5,4.5,0,1,1,22,4.5,4.505,4.505,0,0,1,17.5,9Zm0-7A2.5,2.5,0,1,0,20,4.5,2.5,2.5,0,0,0,17.5,2Z"/>
    </symbol>

    <!--User add-->
    <symbol id="icon-user-add" viewBox="0 0 24 24">
        <path d="M23,11H21V9a1,1,0,0,0-2,0v2H17a1,1,0,0,0,0,2h2v2a1,1,0,0,0,2,0V13h2a1,1,0,0,0,0-2Z"/>
        <path d="M9,12A6,6,0,1,0,3,6,6.006,6.006,0,0,0,9,12ZM9,2A4,4,0,1,1,5,6,4,4,0,0,1,9,2Z"/>
        <path d="M9,14a9.01,9.01,0,0,0-9,9,1,1,0,0,0,2,0,7,7,0,0,1,14,0,1,1,0,0,0,2,0A9.01,9.01,0,0,0,9,14Z"/>
    </symbol>

    <!--User delete-->
    <symbol id="icon-user-delete" viewBox="0 0 24 24">
        <path d="M17,24a1,1,0,0,1-1-1A7,7,0,0,0,2,23a1,1,0,0,1-2,0,9,9,0,0,1,18,0A1,1,0,0,1,17,24Zm6-11H17a1,1,0,0,1,0-2h6a1,1,0,0,1,0,2ZM9,12a6,6,0,1,1,6-6A6.006,6.006,0,0,1,9,12ZM9,2a4,4,0,1,0,4,4A4,4,0,0,0,9,2Z"/>
    </symbol>

    <symbol id="icon-document" viewBox="0 0 24 24">
        <path d="M17,14a1,1,0,0,1-1,1H8a1,1,0,0,1,0-2h8A1,1,0,0,1,17,14Zm-4,3H8a1,1,0,0,0,0,2h5a1,1,0,0,0,0-2Zm9-6.515V19a5.006,5.006,0,0,1-5,5H7a5.006,5.006,0,0,1-5-5V5A5.006,5.006,0,0,1,7,0h4.515a6.958,6.958,0,0,1,4.95,2.05l3.484,3.486A6.951,6.951,0,0,1,22,10.485ZM15.051,3.464A5.01,5.01,0,0,0,14,2.684V7a1,1,0,0,0,1,1h4.316a4.983,4.983,0,0,0-.781-1.05ZM20,10.485c0-.165-.032-.323-.047-.485H15a3,3,0,0,1-3-3V2.047C11.838,2.032,11.679,2,11.515,2H7A3,3,0,0,0,4,5V19a3,3,0,0,0,3,3H17a3,3,0,0,0,3-3Z"/>
    </symbol>

    <!--Search-->
    <symbol id="icon-search" viewBox="0 0 24 24">
        <path d="M23.707,22.293l-5.969-5.969a10.016,10.016,0,1,0-1.414,1.414l5.969,5.969a1,1,0,0,0,1.414-1.414ZM10,18a8,8,0,1,1,8-8A8.009,8.009,0,0,1,10,18Z"/>
    </symbol>

    <!--Dashboard-->
    <symbol id="icon-apps" viewBox="0 0 24 24">
        <path d="M7,0H4A4,4,0,0,0,0,4V7a4,4,0,0,0,4,4H7a4,4,0,0,0,4-4V4A4,4,0,0,0,7,0ZM9,7A2,2,0,0,1,7,9H4A2,2,0,0,1,2,7V4A2,2,0,0,1,4,2H7A2,2,0,0,1,9,4Z"/>
        <path d="M20,0H17a4,4,0,0,0-4,4V7a4,4,0,0,0,4,4h3a4,4,0,0,0,4-4V4A4,4,0,0,0,20,0Zm2,7a2,2,0,0,1-2,2H17a2,2,0,0,1-2-2V4a2,2,0,0,1,2-2h3a2,2,0,0,1,2,2Z"/>
        <path d="M7,13H4a4,4,0,0,0-4,4v3a4,4,0,0,0,4,4H7a4,4,0,0,0,4-4V17A4,4,0,0,0,7,13Zm2,7a2,2,0,0,1-2,2H4a2,2,0,0,1-2-2V17a2,2,0,0,1,2-2H7a2,2,0,0,1,2,2Z"/>
        <path d="M20,13H17a4,4,0,0,0-4,4v3a4,4,0,0,0,4,4h3a4,4,0,0,0,4-4V17A4,4,0,0,0,20,13Zm2,7a2,2,0,0,1-2,2H17a2,2,0,0,1-2-2V17a2,2,0,0,1,2-2h3a2,2,0,0,1,2,2Z"/>
    </symbol>

    <!--Settings-->
    <symbol id="icon-settings" viewBox="0 0 24 24">
        <path d="M12,8a4,4,0,1,0,4,4A4,4,0,0,0,12,8Zm0,6a2,2,0,1,1,2-2A2,2,0,0,1,12,14Z"/>
        <path d="M21.294,13.9l-.444-.256a9.1,9.1,0,0,0,0-3.29l.444-.256a3,3,0,1,0-3-5.2l-.445.257A8.977,8.977,0,0,0,15,3.513V3A3,3,0,0,0,9,3v.513A8.977,8.977,0,0,0,6.152,5.159L5.705,4.9a3,3,0,0,0-3,5.2l.444.256a9.1,9.1,0,0,0,0,3.29l-.444.256a3,3,0,1,0,3,5.2l.445-.257A8.977,8.977,0,0,0,9,20.487V21a3,3,0,0,0,6,0v-.513a8.977,8.977,0,0,0,2.848-1.646l.447.258a3,3,0,0,0,3-5.2Zm-2.548-3.776a7.048,7.048,0,0,1,0,3.75,1,1,0,0,0,.464,1.133l1.084.626a1,1,0,0,1-1,1.733l-1.086-.628a1,1,0,0,0-1.215.165,6.984,6.984,0,0,1-3.243,1.875,1,1,0,0,0-.751.969V21a1,1,0,0,1-2,0V19.748a1,1,0,0,0-.751-.969A6.984,6.984,0,0,1,7.006,16.9a1,1,0,0,0-1.215-.165l-1.084.627a1,1,0,1,1-1-1.732l1.084-.626a1,1,0,0,0,.464-1.133,7.048,7.048,0,0,1,0-3.75A1,1,0,0,0,4.79,8.992L3.706,8.366a1,1,0,0,1,1-1.733l1.086.628A1,1,0,0,0,7.006,7.1a6.984,6.984,0,0,1,3.243-1.875A1,1,0,0,0,11,4.252V3a1,1,0,0,1,2,0V4.252a1,1,0,0,0,.751.969A6.984,6.984,0,0,1,16.994,7.1a1,1,0,0,0,1.215.165l1.084-.627a1,1,0,1,1,1,1.732l-1.084.626A1,1,0,0,0,18.746,10.125Z"/>
    </symbol>

    <!--Activity-->
    <symbol id="icon-activity" viewBox="0 0 24 24">
        <path d="M12,0A12,12,0,1,0,24,12,12.013,12.013,0,0,0,12,0Zm0,22A10,10,0,1,1,22,12,10.011,10.011,0,0,1,12,22Z"/>
        <path d="M12,6a1,1,0,0,0-1,1v4.325L7.629,13.437a1,1,0,0,0,1.062,1.7l3.84-2.4A1,1,0,0,0,13,11.879V7A1,1,0,0,0,12,6Z"/>
    </symbol>

    <!--List check-->
    <symbol id="icon-list-check" viewBox="0 0 24 24">
        <path d="M4,6a2.982,2.982,0,0,1-2.122-.879L.334,3.747A1,1,0,0,1,1.666,2.253L3.251,3.667a1,1,0,0,0,1.456.04L8.311.276A1,1,0,0,1,9.689,1.724L6.1,5.138A2.964,2.964,0,0,1,4,6ZM24,4a1,1,0,0,0-1-1H13a1,1,0,0,0,0,2H23A1,1,0,0,0,24,4ZM6.1,13.138,9.689,9.724A1,1,0,1,0,8.311,8.276l-3.6,3.431a1.023,1.023,0,0,1-1.414,0L1.707,10.122A1,1,0,0,0,.293,11.536l1.585,1.585a3,3,0,0,0,4.226.017ZM24,12a1,1,0,0,0-1-1H13a1,1,0,0,0,0,2H23A1,1,0,0,0,24,12ZM6.1,21.138l3.585-3.414a1,1,0,1,0-1.378-1.448l-3.6,3.431a1,1,0,0,1-1.456-.04L1.666,18.253A1,1,0,0,0,.334,19.747l1.544,1.374a3,3,0,0,0,4.226.017ZM24,20a1,1,0,0,0-1-1H13a1,1,0,0,0,0,2H23A1,1,0,0,0,24,20Z"/>
    </symbol>

    <!--search-->
    <symbol id="icon-search" viewBox="0 0 24 24">
        <path d="M23.707,22.293l-5.969-5.969a10.016,10.016,0,1,0-1.414,1.414l5.969,5.969a1,1,0,0,0,1.414-1.414ZM10,18a8,8,0,1,1,8-8A8.009,8.009,0,0,1,10,18Z"/>
    </symbol>

    <!--Angle right-->
    <symbol id="icon-angle-right" viewBox="0 0 24 24">
        <path d="M7,24a1,1,0,0,1-.707-1.707l8.172-8.172a3,3,0,0,0,0-4.242L6.293,1.707A1,1,0,0,1,7.707.293l8.172,8.172a5.005,5.005,0,0,1,0,7.07L7.707,23.707A1,1,0,0,1,7,24Z"/>
    </symbol>

    <!--Forward-->
    <symbol id="icon-forward" viewBox="0 0 24 24">
        <path d="M0,23V16A9.01,9.01,0,0,1,9,7h4.83V5.414A2,2,0,0,1,17.244,4l5.88,5.879a3,3,0,0,1,0,4.242L17.244,20a2,2,0,0,1-3.414-1.414V17H8a6.006,6.006,0,0,0-6,6,1,1,0,0,1-2,0ZM15.83,8a1,1,0,0,1-1,1H9a7.008,7.008,0,0,0-7,7v1.714A7.984,7.984,0,0,1,8,15h6.83a1,1,0,0,1,1,1v2.586l5.879-5.879a1,1,0,0,0,0-1.414L15.83,5.414Z"/>
    </symbol>

    <!--Reply-->
    <symbol id="icon-reply" viewBox="0 0 24 24">
        <path d="M23,24a1,1,0,0,1-1-1,6.006,6.006,0,0,0-6-6H10.17v1.586A2,2,0,0,1,6.756,20L.877,14.121a3,3,0,0,1,0-4.242L6.756,4A2,2,0,0,1,10.17,5.414V7H15a9.01,9.01,0,0,1,9,9v7A1,1,0,0,1,23,24ZM8.17,5.414,2.291,11.293a1,1,0,0,0,0,1.414L8.17,18.586V16a1,1,0,0,1,1-1H16a7.984,7.984,0,0,1,6,2.714V16a7.008,7.008,0,0,0-7-7H9.17a1,1,0,0,1-1-1Z"/>
    </symbol>

    <!--Trash-->
    <svg id="icon-trash" viewBox="0 0 24 24">
        <path d="M21,4H17.9A5.009,5.009,0,0,0,13,0H11A5.009,5.009,0,0,0,6.1,4H3A1,1,0,0,0,3,6H4V19a5.006,5.006,0,0,0,5,5h6a5.006,5.006,0,0,0,5-5V6h1a1,1,0,0,0,0-2ZM11,2h2a3.006,3.006,0,0,1,2.829,2H8.171A3.006,3.006,0,0,1,11,2Zm7,17a3,3,0,0,1-3,3H9a3,3,0,0,1-3-3V6H18Z"/>
        <path d="M10,18a1,1,0,0,0,1-1V11a1,1,0,0,0-2,0v6A1,1,0,0,0,10,18Z"/>
        <path d="M14,18a1,1,0,0,0,1-1V11a1,1,0,0,0-2,0v6A1,1,0,0,0,14,18Z"/>
    </svg>

    <!--    clip-->
    <symbol id="icon-clip" viewBox="0 0 24 24">
        <path d="M22.95,9.6a1,1,0,0,0-1.414,0L10.644,20.539a5,5,0,1,1-7.072-7.071L14.121,2.876a3,3,0,0,1,4.243,4.242L7.815,17.71a1.022,1.022,0,0,1-1.414,0,1,1,0,0,1,0-1.414l9.392-9.435a1,1,0,0,0-1.414-1.414L4.987,14.882a3,3,0,0,0,0,4.243,3.073,3.073,0,0,0,4.243,0L19.778,8.532a5,5,0,0,0-7.071-7.07L2.158,12.054a7,7,0,0,0,9.9,9.9L22.95,11.018A1,1,0,0,0,22.95,9.6Z"/>
    </symbol>

    <!--plus small-->
    <symbol id="icon-plus-sm" viewBox="0 0 24 24">
        <path d="M17,11H13V7a1,1,0,0,0-1-1h0a1,1,0,0,0-1,1v4H7a1,1,0,0,0-1,1H6a1,1,0,0,0,1,1h4v4a1,1,0,0,0,1,1h0a1,1,0,0,0,1-1V13h4a1,1,0,0,0,1-1h0A1,1,0,0,0,17,11Z"/>
    </symbol>

    <!--shuffle-->
    <symbol id="icon-shuffle" viewBox="0 0 24 24">
        <path d="M23.421,16.583,20.13,13.292a1,1,0,1,0-1.413,1.414L21.007,17A9.332,9.332,0,0,1,14.321,14.2a.982.982,0,0,0-1.408.08L12.9,14.3a1,1,0,0,0,.075,1.382A11.177,11.177,0,0,0,21.01,19l-2.293,2.293A1,1,0,1,0,20.13,22.7l3.291-3.291A2,2,0,0,0,23.421,16.583Z"/>
        <path d="M21.007,7l-2.29,2.29a.892.892,0,0,0-.054.082.992.992,0,0,0,1.467,1.332L21.836,9l1.586-1.585a2,2,0,0,0,.457-2.1,1.969,1.969,0,0,0-.458-.728L20.13,1.3a1,1,0,1,0-1.413,1.413L21.01,5.005c-4.933.012-7.637,2.674-10.089,5.474C8.669,7.937,6,5.4,1.487,5.046L1.006,5a1,1,0,0,0-1,1,1.02,1.02,0,0,0,1,1c.072,0,.287.033.287.033C5.189,7.328,7.425,9.522,9.6,12c-2.162,2.466-4.383,4.7-8.247,4.96l-.4.021a.994.994,0,1,0,.124,1.985c.156-.007.41-.013.535-.023,5.02-.387,7.743-3.6,10.171-6.409C14.235,9.7,16.551,7.018,21.007,7Z"/>
    </symbol>

    <!--time past-->
    <symbol id="icon-time-past" viewBox="0 0 24 24">
        <path d="M12,6a1,1,0,0,0-1,1v5a1,1,0,0,0,.293.707l3,3a1,1,0,0,0,1.414-1.414L13,11.586V7A1,1,0,0,0,12,6Z"/>
        <path d="M23.812,10.132A12,12,0,0,0,3.578,3.415V1a1,1,0,0,0-2,0V5a2,2,0,0,0,2,2h4a1,1,0,0,0,0-2H4.827a9.99,9.99,0,1,1-2.835,7.878A.982.982,0,0,0,1,12a1.007,1.007,0,0,0-1,1.1,12,12,0,1,0,23.808-2.969Z"/>
    </symbol>

    <!--credit card-->
    <symbol id="icon-credit-card" viewBox="0 0 24 24"
            style="enable-background:new 0 0 24 24;" xml:space="preserve">
        <circle cx="5.5" cy="15.5" r="1.5"/>
        <path d="M19,3H5C2.2,3,0,5.2,0,8v8c0,2.8,2.2,5,5,5h14c2.8,0,5-2.2,5-5V8C24,5.2,21.8,3,19,3z M5,5h14c1.7,0,3,1.3,3,3H2  C2,6.3,3.3,5,5,5z M19,19H5c-1.7,0-3-1.3-3-3v-6h20v6C22,17.7,20.7,19,19,19z"/>
    </symbol>

    <!--dashboard-->
    <symbol id="icon-dashboard" viewBox="0 0 24 24">
        <path d="M23.9,11.437A12,12,0,0,0,0,13a11.878,11.878,0,0,0,3.759,8.712A4.84,4.84,0,0,0,7.113,23H16.88a4.994,4.994,0,0,0,3.509-1.429A11.944,11.944,0,0,0,23.9,11.437Zm-4.909,8.7A3,3,0,0,1,16.88,21H7.113a2.862,2.862,0,0,1-1.981-.741A9.9,9.9,0,0,1,2,13,10.014,10.014,0,0,1,5.338,5.543,9.881,9.881,0,0,1,11.986,3a10.553,10.553,0,0,1,1.174.066,9.994,9.994,0,0,1,5.831,17.076ZM7.807,17.285a1,1,0,0,1-1.4,1.43A8,8,0,0,1,12,5a8.072,8.072,0,0,1,1.143.081,1,1,0,0,1,.847,1.133.989.989,0,0,1-1.133.848,6,6,0,0,0-5.05,10.223Zm12.112-5.428A8.072,8.072,0,0,1,20,13a7.931,7.931,0,0,1-2.408,5.716,1,1,0,0,1-1.4-1.432,5.98,5.98,0,0,0,1.744-5.141,1,1,0,0,1,1.981-.286Zm-5.993.631a2.033,2.033,0,1,1-1.414-1.414l3.781-3.781a1,1,0,1,1,1.414,1.414Z"/>
    </symbol>

    <!--Layers-->
    <symbol id="icon-layers" viewBox="0 0 24 24">
        <path d="M22.485,10.975,12,17.267,1.515,10.975A1,1,0,1,0,.486,12.69l11,6.6a1,1,0,0,0,1.03,0l11-6.6a1,1,0,1,0-1.029-1.715Z"/>
        <path d="M22.485,15.543,12,21.834,1.515,15.543A1,1,0,1,0,.486,17.258l11,6.6a1,1,0,0,0,1.03,0l11-6.6a1,1,0,1,0-1.029-1.715Z"/>
        <path d="M12,14.773a2.976,2.976,0,0,1-1.531-.425L.485,8.357a1,1,0,0,1,0-1.714L10.469.652a2.973,2.973,0,0,1,3.062,0l9.984,5.991a1,1,0,0,1,0,1.714l-9.984,5.991A2.976,2.976,0,0,1,12,14.773ZM2.944,7.5,11.5,12.633a.974.974,0,0,0,1,0L21.056,7.5,12.5,2.367a.974.974,0,0,0-1,0h0Z"/>
    </symbol>

    <!--search button-->
    <symbol id="icon-search-button" viewBox="0 0 24 24">
        <path d="M15.5 14h-.79l-.28-.27C15.41 12.59 16 11.11 16 9.5 16 5.91 13.09 3 9.5 3S3 5.91 3 9.5 5.91 16 9.5 16c1.61 0 3.09-.59 4.23-1.57l.27.28v.79l5 4.99L20.49 19l-4.99-5zm-6 0C7.01 14 5 11.99 5 9.5S7.01 5 9.5 5 14 7.01 14 9.5 11.99 14 9.5 14z"/>
        <path d="M0 0h24v24H0z"
              fill="none"/>
    </symbol>

    <!--bank-->
    <symbol id="icon-bank" viewBox="0 0 24 24">
        <path d="M24,23a1,1,0,0,1-1,1H1a1,1,0,0,1,0-2H23A1,1,0,0,1,24,23ZM.291,8.552A2.443,2.443,0,0,1,.444,5.986a4.716,4.716,0,0,1,1.668-1.5L9.613.582a5.174,5.174,0,0,1,4.774,0l7.5,3.907h0a4.716,4.716,0,0,1,1.668,1.5,2.443,2.443,0,0,1,.153,2.566A2.713,2.713,0,0,1,21.292,10H21v8h1a1,1,0,0,1,0,2H2a1,1,0,0,1,0-2H3V10H2.708A2.713,2.713,0,0,1,.291,8.552ZM5,18H8V10H5Zm5-8v8h4V10Zm9,0H16v8h3ZM2.063,7.625A.717.717,0,0,0,2.708,8H21.292a.717.717,0,0,0,.645-.375.452.452,0,0,0-.024-.5,2.7,2.7,0,0,0-.949-.864h0l-7.5-3.907a3.176,3.176,0,0,0-2.926,0l-7.5,3.907a2.712,2.712,0,0,0-.949.865A.452.452,0,0,0,2.063,7.625Z"/>
    </symbol>

   <!--Umbrella-->
    <symbol id="icon-umbrella" viewBox="0 0 24 24">
        <path d="M23.717,9.549A12.834,12.834,0,0,0,13,2.043V1a1,1,0,0,0-2,0V2.043A12.843,12.843,0,0,0,.267,9.549a3.945,3.945,0,0,0,.405,3.682A4.015,4.015,0,0,0,4,15h7v6a1,1,0,0,1-2,0,1,1,0,0,0-2,0,3,3,0,0,0,6,0V15h6.983a4.017,4.017,0,0,0,3.329-1.769A3.948,3.948,0,0,0,23.717,9.549ZM21.656,12.11a1.993,1.993,0,0,1-1.673.89H4a1.992,1.992,0,0,1-1.673-.891,1.927,1.927,0,0,1-.2-1.818C3.581,6.646,7.734,4,12,4a10.809,10.809,0,0,1,9.859,6.291A1.923,1.923,0,0,1,21.656,12.11Z"/>
    </symbol>

    <!--arrow up small-->
    <symbol id="icon-arrow-up" viewBox="0 0 24 24">
        <path d="M6.293,10.879a1,1,0,0,0,1.414,0L11,7.587,11.007,18a1,1,0,0,0,2,0L13,7.586l3.293,3.293a1,1,0,1,0,1.414-1.414L14.122,5.879a3,3,0,0,0-4.243,0L6.293,9.465A1,1,0,0,0,6.293,10.879Z"/>
    </symbol>

    <!--arrow down small-->
    <symbol id="icon-arrow-down" viewBox="0 0 24 24">
        <path d="M17.707,13.121a1,1,0,0,0-1.414,0L13,16.413,12.993,6a1,1,0,0,0-2,0L11,16.414,7.707,13.121a1,1,0,1,0-1.414,1.414l3.585,3.586a3,3,0,0,0,4.243,0l3.586-3.586A1,1,0,0,0,17.707,13.121Z"/>
    </symbol>

    <!--calendar-->
    <symbol id="icon-calendar" viewBox="0 0 24 24">
        <path d="M19,2H18V1a1,1,0,0,0-2,0V2H8V1A1,1,0,0,0,6,1V2H5A5.006,5.006,0,0,0,0,7V19a5.006,5.006,0,0,0,5,5H19a5.006,5.006,0,0,0,5-5V7A5.006,5.006,0,0,0,19,2ZM2,7A3,3,0,0,1,5,4H19a3,3,0,0,1,3,3V8H2ZM19,22H5a3,3,0,0,1-3-3V10H22v9A3,3,0,0,1,19,22Z"/>
        <circle cx="12" cy="15" r="1.5"/>
        <circle cx="7" cy="15" r="1.5"/>
        <circle cx="17" cy="15" r="1.5"/>
    </symbol>

    <!--Notebook-->
    <symbol id="icon-notebook" viewBox="0 0 24 24">
        <path d="M19,3.022c0-.008,0-.014,0-.022V1a1,1,0,0,0-2,0V2.1A5,5,0,0,0,16,2H15V1a1,1,0,0,0-2,0V2H11V1A1,1,0,0,0,9,1V2H8a5,5,0,0,0-1,.1V1A1,1,0,0,0,5,1V3c0,.008,0,.014,0,.022A4.979,4.979,0,0,0,3,7V19a5.006,5.006,0,0,0,5,5h8a5.006,5.006,0,0,0,5-5V7A4.979,4.979,0,0,0,19,3.022ZM19,19a3,3,0,0,1-3,3H8a3,3,0,0,1-3-3V7A3,3,0,0,1,8,4h8a3,3,0,0,1,3,3ZM17,8a1,1,0,0,1-1,1H8A1,1,0,0,1,8,7h8A1,1,0,0,1,17,8Zm0,4a1,1,0,0,1-1,1H8a1,1,0,0,1,0-2h8A1,1,0,0,1,17,12Zm-4,4a1,1,0,0,1-1,1H8a1,1,0,0,1,0-2h4A1,1,0,0,1,13,16Z"/>
    </symbol>

    <!--Filter-->
    <symbol id="icon-filter" viewBox="0 0 24 24">
        <path d="M14,24a1,1,0,0,1-.6-.2l-4-3A1,1,0,0,1,9,20V14.38L1.984,6.487A3.9,3.9,0,0,1,4.9,0H19.1a3.9,3.9,0,0,1,2.913,6.488L15,14.38V23a1,1,0,0,1-1,1Zm-3-4.5L13,21V14a1,1,0,0,1,.253-.664l7.268-8.177A1.9,1.9,0,0,0,19.1,2H4.9A1.9,1.9,0,0,0,3.479,5.158l7.269,8.178A1,1,0,0,1,11,14Z"/>
    </symbol>

    <!--Money-->
    <symbol id="icon-money" viewBox="0 0 24 24">
        <path d="M19,20H5a5.006,5.006,0,0,1-5-5V9A5.006,5.006,0,0,1,5,4H19a5.006,5.006,0,0,1,5,5v6A5.006,5.006,0,0,1,19,20ZM5,6A3,3,0,0,0,2,9v6a3,3,0,0,0,3,3H19a3,3,0,0,0,3-3V9a3,3,0,0,0-3-3Zm7,10a4,4,0,1,1,4-4A4,4,0,0,1,12,16Zm0-6a2,2,0,1,0,2,2A2,2,0,0,0,12,10ZM5,8A1,1,0,1,0,6,9,1,1,0,0,0,5,8ZM18,9a1,1,0,1,0,1-1A1,1,0,0,0,18,9ZM5,14a1,1,0,1,0,1,1A1,1,0,0,0,5,14Zm13,1a1,1,0,1,0,1-1A1,1,0,0,0,18,15Z"/>
    </symbol>

    <!--subtitles-->
    <svg id="icon-subtitles" viewBox="0 0 24 24">
        <path d="M19,22H5a5.006,5.006,0,0,1-5-5V7A5.006,5.006,0,0,1,5,2H19a5.006,5.006,0,0,1,5,5V17A5.006,5.006,0,0,1,19,22ZM5,4A3,3,0,0,0,2,7V17a3,3,0,0,0,3,3H19a3,3,0,0,0,3-3V7a3,3,0,0,0-3-3Z"/>
        <path d="M19,13H11a1,1,0,0,1,0-2h8a1,1,0,0,1,0,2Z"/>
        <path d="M7,13H5a1,1,0,0,1,0-2H7a1,1,0,0,1,0,2Z"/>
        <path d="M13,18H5a1,1,0,0,1,0-2h8a1,1,0,0,1,0,2Z"/>
        <path d="M19,18H17a1,1,0,0,1,0-2h2a1,1,0,0,1,0,2Z"/>
    </svg>

    <!--Home-->
    <symbol id="icon-home" viewBox="0 0 24 24">
        <path d="M23.121,9.069,15.536,1.483a5.008,5.008,0,0,0-7.072,0L.879,9.069A2.978,2.978,0,0,0,0,11.19v9.817a3,3,0,0,0,3,3H21a3,3,0,0,0,3-3V11.19A2.978,2.978,0,0,0,23.121,9.069ZM15,22.007H9V18.073a3,3,0,0,1,6,0Zm7-1a1,1,0,0,1-1,1H17V18.073a5,5,0,0,0-10,0v3.934H3a1,1,0,0,1-1-1V11.19a1.008,1.008,0,0,1,.293-.707L9.878,2.9a3.008,3.008,0,0,1,4.244,0l7.585,7.586A1.008,1.008,0,0,1,22,11.19Z"/>
    </symbol>

    <!--Check-->
    <symbol id="icon-check" viewBox="0 0 24 24">
        <path d="M22.319,4.431,8.5,18.249a1,1,0,0,1-1.417,0L1.739,12.9a1,1,0,0,0-1.417,0h0a1,1,0,0,0,0,1.417l5.346,5.345a3.008,3.008,0,0,0,4.25,0L23.736,5.847a1,1,0,0,0,0-1.416h0A1,1,0,0,0,22.319,4.431Z"/>
    </symbol>

    <!--check with circle-->
    <symbol id="icon-check-circle" viewBox="0 -21 512.016 512">
        <path d="m234.667969 469.339844c-129.386719 0-234.667969-105.277344-234.667969-234.664063s105.28125-234.6679685 234.667969-234.6679685c44.992187 0 88.765625 12.8203125 126.589843 37.0976565 7.425782 4.78125 9.601563 14.679687 4.820313 22.125-4.796875 7.445312-14.675781 9.597656-22.121094 4.820312-32.640625-20.972656-70.441406-32.042969-109.289062-32.042969-111.746094 0-202.667969 90.921876-202.667969 202.667969 0 111.742188 90.921875 202.664063 202.667969 202.664063 111.742187 0 202.664062-90.921875 202.664062-202.664063 0-6.679687-.320312-13.292969-.9375-19.796875-.851562-8.8125 5.589844-16.621094 14.378907-17.472656 8.832031-.8125 16.617187 5.589844 17.472656 14.378906.722656 7.53125 1.085937 15.167969 1.085937 22.890625 0 129.386719-105.277343 234.664063-234.664062 234.664063zm0 0"/>
        <path d="m261.332031 288.007812c-4.09375 0-8.191406-1.558593-11.304687-4.691406l-96-96c-6.25-6.253906-6.25-16.386718 0-22.636718s16.382812-6.25 22.632812 0l84.695313 84.695312 223.335937-223.339844c6.253906-6.25 16.386719-6.25 22.636719 0s6.25 16.382813 0 22.632813l-234.667969 234.667969c-3.136718 3.113281-7.230468 4.671874-11.328125 4.671874zm0 0"/>
    </symbol>

    <!--Alert-->
    <symbol id="icon-alert" viewBox="0 0 512.001 512.001"
         style="enable-background:new 0 0 512.001 512.001;" xml:space="preserve">
        <g>
	<g>
		<path d="M503.839,395.379l-195.7-338.962C297.257,37.569,277.766,26.315,256,26.315c-21.765,0-41.257,11.254-52.139,30.102    L8.162,395.378c-10.883,18.85-10.883,41.356,0,60.205c10.883,18.849,30.373,30.102,52.139,30.102h391.398    c21.765,0,41.256-11.254,52.14-30.101C514.722,436.734,514.722,414.228,503.839,395.379z M477.861,440.586    c-5.461,9.458-15.241,15.104-26.162,15.104H60.301c-10.922,0-20.702-5.646-26.162-15.104c-5.46-9.458-5.46-20.75,0-30.208    L229.84,71.416c5.46-9.458,15.24-15.104,26.161-15.104c10.92,0,20.701,5.646,26.161,15.104l195.7,338.962    C483.321,419.836,483.321,431.128,477.861,440.586z"/>
	</g>
</g>
        <g>
	<g>
		<rect x="241.001" y="176.01" width="29.996" height="149.982"/>
	</g>
</g>
        <g>
	<g>
		<path d="M256,355.99c-11.027,0-19.998,8.971-19.998,19.998s8.971,19.998,19.998,19.998c11.026,0,19.998-8.971,19.998-19.998    S267.027,355.99,256,355.99z"/>
	</g>
</g>
        <g>
</g>
        <g>
</g>
        <g>
</g>
        <g>
</g>
        <g>
</g>
        <g>
</g>
        <g>
</g>
        <g>
</g>
        <g>
</g>
        <g>
</g>
        <g>
</g>
        <g>
</g>
        <g>
</g>
        <g>
</g>
        <g>
</g>
    </symbol>
</svg>
